<svg width="150" height="37" viewBox="0 0 150 37" fill="none" xmlns="http://www.w3.org/2000/svg">
<g clip-path="url(#clip0_119_1667)">
<g clip-path="url(#clip1_119_1667)">
<path d="M133.862 1C132.487 1 131.387 1.76371 131.387 2.69507L132.225 12.108C132.319 12.6792 133.019 13.1138 133.862 13.1138C134.712 13.1138 135.406 12.6792 135.5 12.108L136.344 2.69507C136.344 1.76371 135.244 1 133.862 1ZM0 8.55019C0 8.55019 3.73125 23.7437 4.325 26.2149C5.025 29.0897 6.275 30.1514 9.8875 29.4374L12.2187 20.0183C12.8062 17.6775 13.2062 16.0072 13.5875 13.623H13.65C13.9187 16.0321 14.3 17.6837 14.7812 20.0183L16.2187 26.544C16.7062 28.7917 18.0625 30.2073 21.5937 29.4374L27.1562 8.55019H22.6687L20.775 17.5843C20.2625 20.2108 19.8 22.2597 19.4437 24.6626H19.3812C19.0562 22.2846 18.6437 20.3163 18.1312 17.752L16.15 8.55019H11.4812L9.36875 17.5222C8.76875 20.248 8.2125 22.446 7.85625 24.7682H7.79375C7.37399 22.2323 6.91561 19.7029 6.41875 17.1808C6.41875 17.1808 5.1625 10.7668 4.71875 8.55019H0ZM42.7375 8.55019V29.4374H47.0062V8.55019H42.7375ZM102.862 8.55019V23.961C102.862 26.0845 103.262 27.5685 104.119 28.4812C104.869 29.276 106.112 29.7851 107.594 29.7851C108.856 29.7851 110.1 29.5492 110.687 29.3318L110.625 26.0224C110.096 26.1544 109.552 26.217 109.006 26.2087C107.556 26.2087 107.069 25.2898 107.069 23.3774V17.485H110.787V13.4926H107.069V8.55019H102.862ZM120.225 8.55019C119.512 8.56882 118.7 9.109 118.181 9.99689C117.494 11.1828 117.612 12.5116 118.419 12.9772L127.044 16.9634C127.581 17.1621 128.312 16.7772 128.737 16.0569C129.162 15.3305 129.131 14.5047 128.681 14.1445L120.894 8.71783C120.691 8.60075 120.459 8.54266 120.225 8.55019ZM147.5 8.55019C147.268 8.54382 147.038 8.60188 146.837 8.71783L139.044 14.1445C138.6 14.5047 138.569 15.3243 138.987 16.0507V16.0569C139.412 16.7834 140.144 17.1621 140.681 16.9634L149.306 12.971C150.119 12.5116 150.237 11.1828 149.556 9.99689C149.031 9.109 148.219 8.56882 147.5 8.55019ZM33.2 13.3932C30.55 13.3932 28.4437 14.1383 27.2937 14.7903L28.1312 17.6464C29.1812 16.9945 30.8562 16.4481 32.4437 16.4481C35.0625 16.4419 35.4937 17.9196 35.4937 18.8696V19.0931C29.775 19.0869 26.1687 21.049 26.1687 25.0538C26.1687 27.5002 28.0062 29.7913 31.2 29.7913C33.1687 29.7913 34.8125 29.009 35.8 27.761H35.8937C35.8937 27.761 36.55 30.4743 40.1437 29.4374C39.9633 28.1831 39.8797 26.9169 39.8937 25.6499V20.0742C39.8937 16.5226 38.3625 13.3932 33.2 13.3932ZM58.7375 13.3932C56.0625 13.3932 54.8625 14.7406 54.1375 15.8769H54.075V13.7472H50V29.4374H54.2875V20.2356C54.2875 19.801 54.3375 19.3477 54.4937 18.9503C54.8437 18.0252 55.7125 16.9386 57.1 16.9386C58.8312 16.9386 59.6375 18.3977 59.6375 20.4964V29.4374H63.925V20.1238C63.925 19.714 63.9875 19.2173 64.1062 18.851C64.2706 18.2991 64.6101 17.8147 65.0742 17.4701C65.5382 17.1255 66.1019 16.939 66.6812 16.9386C68.4312 16.9386 69.2812 18.3667 69.2812 20.8379V29.4374H73.5687V20.1983C73.5687 15.3243 71.075 13.3932 68.2687 13.3932C67.0187 13.3932 66.0375 13.7037 65.15 14.2439C64.4 14.6992 63.7333 15.3512 63.15 16.1997H63.0875C62.7425 15.3432 62.1393 14.6137 61.3605 14.1112C60.5816 13.6088 59.6654 13.358 58.7375 13.3932ZM82.3 13.3932C79.6437 13.3932 77.5437 14.1383 76.3937 14.7903L77.2312 17.6464C78.2812 16.9945 79.9562 16.4481 81.5437 16.4481C84.1625 16.4419 84.5875 17.9196 84.5875 18.8696V19.0931C78.875 19.0869 75.2687 21.049 75.2687 25.0538C75.2687 27.5002 77.1062 29.7913 80.3 29.7913C82.2687 29.7913 83.9125 29.009 84.8937 27.761H84.9937C84.9937 27.761 85.6437 30.4743 89.2437 29.4374C89.0633 28.1831 88.9797 26.9169 88.9937 25.6499V20.0742C88.9937 16.5226 87.4625 13.3932 82.3 13.3932ZM100.119 13.3932C98.475 13.3932 96.6062 14.4488 95.8187 16.7089H95.7V13.7472H91.8375V29.4374H96.2437V21.4029C96.2437 20.9765 96.275 20.5916 96.3375 20.248C96.6625 18.5592 97.9625 17.485 99.8187 17.485C100.331 17.485 100.694 17.5409 101.087 17.5968V13.4926C100.769 13.4238 100.444 13.3904 100.119 13.3932ZM127.369 20.9683C127.257 20.9682 127.147 20.9893 127.044 21.0304L118.419 25.0103C117.606 25.476 117.487 26.8048 118.181 27.9907C118.869 29.1704 120.087 29.7354 120.894 29.276L128.681 23.8493C129.131 23.4767 129.162 22.6633 128.744 21.9307C128.4 21.3408 127.85 20.9807 127.369 20.9745M140.362 20.9745C139.881 20.9869 139.331 21.347 138.987 21.9431C138.569 22.6695 138.6 23.4891 139.05 23.8555L146.837 29.2822C147.644 29.7416 148.856 29.1828 149.55 27.9969C150.244 26.811 150.119 25.4822 149.306 25.0166L140.681 21.0304C140.581 20.9864 140.471 20.963 140.362 20.9745ZM35.6312 21.8872V23.8431C35.6356 24.1301 35.5998 24.4164 35.525 24.6937C35.3184 25.2868 34.9287 25.7999 34.4113 26.1601C33.894 26.5202 33.2754 26.7089 32.6437 26.6992C31.4562 26.6992 30.5187 26.0348 30.5187 24.6254C30.5187 22.4708 32.9125 21.8748 35.6312 21.8872ZM84.725 21.8872V23.8431C84.7293 24.1301 84.6936 24.4164 84.6187 24.6937C84.4125 25.2858 84.0237 25.7982 83.5076 26.1582C82.9915 26.5183 82.3743 26.7075 81.7437 26.6992C80.5562 26.6992 79.6187 26.0348 79.6187 24.6254C79.6187 22.4708 82.0062 21.8748 84.725 21.8872ZM133.862 24.8862C133.019 24.8862 132.319 25.3208 132.225 25.892L131.387 35.3049C131.387 36.2363 132.487 37 133.862 37C135.237 37 136.344 36.2363 136.344 35.3049L135.5 25.892C135.406 25.3208 134.712 24.8862 133.862 24.8862Z" fill="black"/>
</g>
</g>
<defs>
<clipPath id="clip0_119_1667">
<rect width="150" height="36" fill="white" transform="translate(0 0.5)"/>
</clipPath>
<clipPath id="clip1_119_1667">
<rect width="150" height="36" fill="white" transform="translate(0 1)"/>
</clipPath>
</defs>
</svg>
