<svg width="120" height="57" viewBox="0 0 120 57" fill="none" xmlns="http://www.w3.org/2000/svg">
<g clip-path="url(#clip0_119_1657)">
<path d="M11.616 5.937C11.3076 5.62074 10.9388 5.36962 10.5315 5.19853C10.1242 5.02744 9.68676 4.93987 9.24501 4.941C8.80535 4.93903 8.36986 5.02628 7.9649 5.19748C7.55994 5.36867 7.19392 5.62025 6.88901 5.937H6.87401C6.24615 6.58001 5.89662 7.44431 5.90101 8.343C5.90101 9.293 6.27201 10.14 6.87401 10.746L6.88901 10.761C7.19487 11.076 7.56122 11.326 7.96607 11.4959C8.37092 11.6659 8.80594 11.7523 9.24501 11.75C9.68609 11.7519 10.1231 11.6654 10.5302 11.4955C10.9372 11.3256 11.3061 11.0759 11.615 10.761L11.624 10.746C12.2526 10.1048 12.602 9.24093 12.596 8.343C12.596 7.402 12.226 6.546 11.624 5.937H11.616ZM9.24501 52.527C10.178 52.527 11.015 52.14 11.615 51.535L11.624 51.519C12.2504 50.88 12.5997 50.0198 12.596 49.125C12.596 48.175 12.226 47.324 11.624 46.711H11.616C11.3084 46.3936 10.9398 46.1417 10.5323 45.9704C10.1249 45.7991 9.687 45.7119 9.24501 45.714C8.8051 45.711 8.36922 45.7979 7.96409 45.9693C7.55896 46.1407 7.19312 46.3931 6.88901 46.711H6.87401C6.24512 47.3566 5.89559 48.2238 5.90101 49.125C5.90101 50.062 6.27201 50.914 6.87401 51.519L6.88901 51.535C7.196 51.8487 7.5625 52.0981 7.96705 52.2684C8.3716 52.4387 8.80606 52.5266 9.24501 52.527ZM27.467 42.214C27.895 42.1003 28.2957 41.9017 28.6454 41.6299C28.995 41.3581 29.2863 41.0187 29.502 40.632L29.565 40.515C29.9579 39.7552 30.0528 38.8761 29.831 38.05C29.7211 37.6179 29.5263 37.212 29.258 36.8559C28.9896 36.4998 28.6531 36.2007 28.268 35.976L28.221 35.945C27.4648 35.518 26.57 35.4083 25.733 35.64C25.3042 35.7531 24.9028 35.9519 24.553 36.2245C24.2032 36.4971 23.9124 36.8378 23.698 37.226C23.2522 38.0077 23.1305 38.933 23.359 39.8033C23.5874 40.6737 24.1478 41.42 24.92 41.882H24.924C25.725 42.352 26.627 42.437 27.467 42.214ZM12.674 25.246C12.2277 24.788 11.6944 24.4238 11.1054 24.1748C10.5163 23.9258 9.88349 23.797 9.24401 23.796C8.60536 23.7977 7.97347 23.9268 7.38536 24.1758C6.79724 24.4248 6.26473 24.7886 5.81901 25.246C4.91016 26.1774 4.40376 27.4287 4.40901 28.73C4.40901 30.093 4.94801 31.324 5.81901 32.226C6.26624 32.6812 6.79966 33.0427 7.38814 33.2896C7.97662 33.5364 8.60837 33.6635 9.24651 33.6635C9.88465 33.6635 10.5164 33.5364 11.1049 33.2896C11.6934 33.0427 12.2268 32.6812 12.674 32.226C13.5836 31.2899 14.091 30.0352 14.088 28.73C14.0943 27.4277 13.5862 26.1755 12.674 25.246ZM10.744 19.445C12.6593 19.7704 14.4215 20.6964 15.776 22.089H15.788C15.998 22.304 16.206 22.543 16.397 22.781L19.737 20.816C19.2976 19.4625 19.2594 18.0107 19.627 16.636C19.8678 15.7097 20.2888 14.84 20.866 14.0766C21.4433 13.3131 22.1654 12.671 22.991 12.187L23.045 12.148C23.8562 11.6771 24.753 11.3722 25.6831 11.2508C26.6132 11.1294 27.5581 11.1941 28.463 11.441C29.3834 11.6949 30.2445 12.1282 30.9967 12.7162C31.7489 13.3042 32.3774 14.0352 32.846 14.867V14.871C33.8024 16.5615 34.0618 18.5583 33.569 20.437C33.3293 21.3647 32.9089 22.2359 32.3318 23.0007C31.7547 23.7656 31.0323 24.4089 30.206 24.894L29.749 25.168H29.702C28.154 25.9159 26.3879 26.0792 24.729 25.628C23.3762 25.2574 22.1611 24.4997 21.233 23.448L17.901 25.41C18.6938 27.5565 18.6938 29.9155 17.901 32.062L21.233 34.019C22.1569 32.9617 23.3735 32.202 24.729 31.836C25.6442 31.5809 26.6018 31.5147 27.5434 31.6416C28.485 31.7685 29.391 32.0857 30.206 32.574L30.315 32.629V32.632C31.9298 33.6219 33.0966 35.2008 33.569 37.035C34.0607 38.9112 33.8013 40.9051 32.846 42.593L32.784 42.718L32.78 42.707C31.8241 44.3283 30.2789 45.5177 28.467 46.027C27.5511 46.2734 26.5954 46.3355 25.6554 46.2095C24.7153 46.0835 23.8097 45.7719 22.991 45.293V45.277C21.3242 44.2968 20.1143 42.6953 19.627 40.824C19.2592 39.452 19.2974 38.0027 19.737 36.652L16.397 34.691C16.2053 34.9278 16.0017 35.1548 15.787 35.371L15.776 35.382C14.4224 36.7727 12.6595 37.6942 10.745 38.012V41.937C12.131 42.234 13.374 42.937 14.346 43.929L14.354 43.937C15.7117 45.3219 16.4697 47.1856 16.464 49.125C16.4674 51.0589 15.7094 52.9165 14.354 54.296L14.346 54.32C13.034 55.644 11.233 56.468 9.24501 56.468C8.29593 56.4654 7.35684 56.2742 6.48233 55.9055C5.60783 55.5367 4.81536 54.9978 4.15101 54.32H4.14301V54.296C2.78688 52.9168 2.02818 51.0592 2.03101 49.125C2.03101 47.101 2.83901 45.261 4.14401 43.937V43.929H4.15201C5.13001 42.9265 6.38126 42.2337 7.75001 41.937V38.011C5.83666 37.6929 4.075 36.7718 2.72201 35.382L2.71101 35.371C0.970825 33.5993 -0.00290006 31.2144 6.4883e-06 28.731C-0.00261727 26.2473 0.97062 23.862 2.71001 22.089H2.72201C4.07546 20.6971 5.83616 19.7712 7.75001 19.445V15.534C6.38329 15.2296 5.13376 14.5364 4.15201 13.538H4.14401V13.526C2.78643 12.1428 2.02745 10.2811 2.03101 8.343C2.03101 6.332 2.83901 4.488 4.14401 3.16L4.15201 3.156C4.81501 2.47588 5.60705 1.93487 6.48174 1.56466C7.35643 1.19446 8.2962 1.00249 9.24601 1C11.234 1 13.035 1.824 14.347 3.156V3.16H14.355C15.7097 4.54487 16.4672 6.40575 16.465 8.343C16.4696 10.281 15.7117 12.1431 14.355 13.527L14.347 13.539C13.3644 14.5379 12.1138 15.2311 10.746 15.535V19.445H10.744ZM29.502 16.835L29.475 16.796C29.0323 16.039 28.312 15.4845 27.467 15.25C27.0413 15.1335 26.5965 15.1035 26.1591 15.1619C25.7216 15.2203 25.3002 15.3659 24.92 15.59H24.924C24.5395 15.8144 24.2034 16.1129 23.9353 16.4682C23.6671 16.8236 23.4723 17.2287 23.362 17.66C23.1314 18.5328 23.252 19.4612 23.698 20.246L23.713 20.266C24.174 21.066 24.913 21.606 25.733 21.82C26.1558 21.9407 26.5989 21.9735 27.0349 21.9164C27.4709 21.8593 27.8905 21.7135 28.268 21.488L28.311 21.468C29.0632 21.0096 29.6081 20.2772 29.831 19.425C30.0627 18.5518 29.9447 17.6226 29.502 16.835ZM44.319 17.984H48.045V29.562L53.42 23.512H57.89L51.4 30.519L57.917 39.402H53.647L48.045 31.468V39.402H44.319V17.984ZM62.217 31.527C62.217 33.496 63.607 36.363 66.967 36.363C69.042 36.363 70.409 35.261 71.12 33.816C71.49 33.116 71.659 32.366 71.717 31.589C71.7472 30.8212 71.6001 30.0567 71.287 29.355C70.635 27.855 69.187 26.55 66.94 26.55C63.924 26.55 62.217 29.039 62.217 31.5V31.527ZM75.413 39.402H71.686V37.117C70.694 38.964 68.616 39.89 66.424 39.89C61.42 39.89 58.491 35.925 58.491 31.441C58.491 26.437 62.045 23.023 66.424 23.023C69.268 23.023 71.002 24.554 71.686 25.832V23.512H75.413V39.402ZM79.631 26.437H77.701V23.511H79.631V22.617C79.631 17.894 83.163 17.613 85.835 17.582V20.5C84.897 20.5 83.362 20.5 83.362 22.734V23.511H85.835V26.437H83.361V39.402H79.631V26.437ZM88.37 17.984H92.096V29.562L97.471 23.512H101.936L95.452 30.519L101.963 39.402H97.698L92.096 31.468V39.402H88.371L88.37 17.984ZM106.264 31.527C106.264 33.496 107.659 36.363 111.014 36.363C113.088 36.363 114.456 35.261 115.167 33.816C115.537 33.116 115.71 32.366 115.764 31.589C115.794 30.8212 115.647 30.0567 115.334 29.355C114.682 27.855 113.233 26.55 110.987 26.55C107.975 26.55 106.264 29.039 106.264 31.5V31.527ZM119.464 39.402H115.737V37.117C114.741 38.964 112.667 39.89 110.475 39.89C105.467 39.89 102.542 35.925 102.542 31.441C102.542 26.437 106.096 23.023 110.475 23.023C113.319 23.023 115.053 24.554 115.737 25.832V23.512H119.463L119.464 39.402Z" fill="#231F20"/>
</g>
<defs>
<clipPath id="clip0_119_1657">
<rect width="120" height="56" fill="white" transform="translate(0 0.5)"/>
</clipPath>
</defs>
</svg>
