<svg width="120" height="61" viewBox="0 0 120 61" fill="none" xmlns="http://www.w3.org/2000/svg">
<path fill-rule="evenodd" clip-rule="evenodd" d="M63.0835 22.8519C62.08 22.0079 60.3673 21.5864 57.9445 21.5864H52.48V38.4737H56.5661V33.181H58.3964C60.618 33.181 62.2471 32.6921 63.2838 31.7133C64.4516 30.6167 65.0392 29.1566 65.0392 27.3338C65.0392 25.4437 64.387 23.9494 63.0835 22.8519ZM58.2949 29.3598H56.5661V25.4076H58.1192C60.0085 25.4076 60.9531 26.0703 60.9531 27.3956C60.9531 28.7038 60.0664 29.3598 58.2949 29.3598ZM72.0313 21.5854H67.7705V38.4728H76.9701V34.6506H72.0313V21.5854ZM85.3177 21.5854L78.625 38.4728H83.2124L84.0896 36.0177H89.905L90.707 38.4728H95.346L88.7005 21.5854H85.3177ZM85.2675 32.599L87.0227 26.8269L88.7506 32.599H85.2675Z" fill="black"/>
<path fill-rule="evenodd" clip-rule="evenodd" d="M97.4743 38.4729H101.737V21.5856H97.4743V38.4729ZM118.282 24.7507C117.744 23.9702 117.053 23.3072 116.25 22.8017C114.964 21.991 113.209 21.5865 110.986 21.5865H105.371V38.4729H111.939C114.312 38.4729 116.217 37.6973 117.654 36.1441C119.092 34.5919 119.809 32.5318 119.809 29.9657C119.809 27.9245 119.301 26.1862 118.282 24.7507ZM111.463 34.6498H109.633V25.4087H111.488C112.792 25.4087 113.794 25.8169 114.496 26.6305C115.199 27.4441 115.549 28.5986 115.549 30.0929C115.549 33.1308 114.187 34.6498 111.463 34.6498ZM17.8833 7.40771L4.07286 11.0248L0.26684 24.9131L5.02697 29.8005L0.189941 34.6071L3.77191 48.5562L17.5225 52.3982L22.3605 47.5906L27.1206 52.477L40.9311 48.86L44.7362 34.9707L39.977 30.0853L44.814 25.2786L41.232 11.3286L27.4795 7.48651L22.6434 12.2932L17.8833 7.40771ZM9.40833 13.6963L16.6833 11.79L19.8647 15.0558L15.2251 19.6659L9.40833 13.6963ZM25.3786 15.0995L28.6111 11.8878L35.8548 13.9118L29.9431 19.7856L25.3786 15.0995ZM4.62539 23.7729L6.6295 16.4581L12.4444 22.4277L7.8058 27.0378L4.62539 23.7729ZM32.6763 22.5929L38.5881 16.7172L40.4735 24.0653L37.2419 27.278L32.6763 22.5929ZM17.9592 22.4723L22.5988 17.8621L27.1624 22.5482L22.5238 27.1583L17.9592 22.4723ZM10.5409 29.8441L15.1795 25.234L19.7459 29.9201L15.1054 34.5302L10.5409 29.8441ZM25.259 29.9647L29.8976 25.3545L34.4621 30.0406L29.8225 34.6507L25.259 29.9647ZM4.52855 35.8195L7.76213 32.6058L12.3257 37.2929L6.41589 43.1656L4.52855 35.8195ZM17.8396 37.3365L22.4792 32.7264L27.0438 37.4125L22.4052 42.0226L17.8396 37.3365ZM32.5567 37.4581L37.1963 32.8479L40.3776 36.1128L38.3744 43.4277L32.5567 37.4581ZM9.14911 45.9739L15.0599 40.0982L19.6263 44.7843L16.3928 47.9979L9.14911 45.9739ZM25.1393 44.8289L29.778 40.2188L35.5938 46.1893L28.3197 48.0948L25.1393 44.8289Z" fill="black"/>
</svg>
