<svg width="141" height="63" viewBox="0 0 141 63" fill="none" xmlns="http://www.w3.org/2000/svg">
<g clip-path="url(#clip0_119_1660)">
<g clip-path="url(#clip1_119_1660)">
<path d="M139.956 36.9451C139.221 36.3615 138.27 36.5738 137.751 37.4755C137.664 37.6345 135.762 41.0292 132.433 41.0292C131.136 41.0292 130.141 40.5518 129.493 39.5441C129.45 39.4911 129.406 39.3848 129.363 39.3318C129.363 39.3318 129.406 39.3318 129.406 39.2788C137.275 33.7624 137.189 29.0418 136.843 27.2914C136.367 25.1697 134.854 23.7907 132.908 23.7907C128.412 23.7907 125.428 29.9434 125.428 35.6721C125.428 36.4148 125.472 37.1045 125.558 37.7938C123.958 39.2261 121.494 41.0292 119.332 41.0292C118.078 41.0292 117.127 40.5518 116.522 39.6501C116.306 39.3318 116.133 38.9605 116.003 38.5895C122.013 36.4678 124.304 31.7471 123.872 27.9811C123.612 25.5411 122.099 23.7907 120.24 23.7907C116.046 23.7907 113.02 29.2011 112.544 34.5051C111.722 34.3991 111.031 34.1338 110.382 33.6034C110.469 32.7548 110.555 31.9061 110.555 31.1104C110.555 29.3601 110.296 27.8751 109.777 26.7081C109.085 25.1697 107.917 24.3211 106.577 24.3211C105.842 24.3211 105.193 24.7984 104.804 25.6471C104.026 27.3978 104.545 30.7921 105.972 33.4975C106.231 34.0278 106.534 34.5051 106.88 34.9825C106.102 38.0588 104.458 40.9762 102.383 40.9762C101.432 40.9762 100.74 40.6048 100.135 39.8625C99.3135 38.7485 98.7513 36.7858 98.5784 34.2931C104.458 25.2761 107.356 16.418 105.712 12.2277C105.15 10.7953 104.113 10 102.859 10C98.7945 10 96.3732 16.471 95.4222 29.7844C95.3787 30.5801 95.3355 31.5878 95.3355 32.6488C93.1737 36.2555 89.5851 40.9762 86.3856 40.9762C85.4778 40.9762 84.786 40.6048 84.3534 39.8091C84.3102 39.7561 84.267 39.6501 84.2238 39.5971C84.267 39.5971 84.3102 39.5441 84.3534 39.4911C92.2659 33.2321 92.136 28.5114 91.7469 26.8141C91.3146 24.9577 89.931 23.7377 88.1583 23.7377C83.5752 23.7377 80.4621 30.2088 80.4621 36.2555C80.4621 36.7858 80.5053 37.3165 80.5485 37.8468C79.0785 39.1198 77.9112 40.2868 76.7436 41.4005C76.9167 39.7561 77.1759 37.6345 77.4786 34.5051C77.5653 33.8688 77.6085 33.3381 77.6517 33.0728C77.9112 30.7921 74.8413 30.3148 74.4954 32.8608C74.1495 35.5128 73.2415 40.9762 70.6906 40.9762C69.1774 40.9762 68.3557 38.9075 68.5288 35.8841C68.7448 31.1108 70.8634 27.2384 73.4577 27.2384C74.3656 27.2384 74.7981 28.4054 74.7981 28.4054C75.6195 30.2088 78.1704 28.6704 77.6085 26.7611C77.3488 25.9124 76.5276 23.7377 73.5442 23.7377C67.4911 23.7377 65.5885 31.2698 65.3293 36.2555C65.2858 37.0511 65.2858 37.8468 65.3725 38.6425C64.5076 39.9155 63.5131 40.9762 62.5189 40.9762C61.5673 40.9762 60.9622 39.6501 61.3081 36.6268C61.654 33.7094 61.9135 31.3228 62.0431 29.9434C62.7781 23.6317 56.3359 23.7907 56.3359 23.7907C56.3359 23.7907 56.2495 20.0777 53.7847 20.0777C52.531 20.0777 51.3637 21.2977 51.3637 23.5787C51.3637 25.7004 52.7905 26.7611 52.7905 26.7611C52.4878 30.0498 51.2338 40.9762 48.4237 40.9762C47.1697 40.9762 47.0831 39.3318 47.2129 38.1651C47.3857 36.5738 47.602 33.8155 47.6887 33.1261C47.9479 30.8451 44.8781 30.3678 44.5322 32.9138C44.1863 35.5661 43.2784 41.0292 40.7273 41.0292C39.2141 41.0292 38.3927 38.6955 38.5223 35.8311C38.7383 31.0041 40.8572 27.2914 43.4513 27.2914C44.3591 27.2914 44.7916 28.4584 44.7916 28.4584C45.4834 30.2618 48.1207 28.9888 47.602 26.8141C47.386 25.8594 46.5211 23.7907 43.5377 23.7907C37.4846 23.7907 35.5823 31.3228 35.3228 36.3085C35.2796 37.1041 35.2796 37.8468 35.3228 38.5361C34.4579 39.9685 33.4202 41.0292 32.426 41.0292C31.5179 41.0292 30.8261 40.4455 30.9989 37.9531C31.0856 36.7858 32.1665 28.7768 32.1233 27.3444C31.9934 24.9047 31.0856 23.8437 28.8803 23.8437C26.5457 23.8437 24.8162 25.3291 24.0812 26.2307C24.0812 26.2307 25.1621 16.1527 25.3781 14.1904C25.5944 12.1747 22.3949 12.1217 22.2218 14.1904C22.1354 15.092 21.2708 23.0481 20.4924 30.4741C18.6767 35.3538 15.0881 42.7795 9.76977 42.7795C-0.304483 42.7795 4.32181 15.8347 13.7907 15.8347C15.9959 15.8347 15.0015 20.1841 13.5315 22.7831C12.4938 24.6924 15.1311 26.8141 16.6011 23.7907C20.6654 15.357 17.2497 12.228 14.007 12.228C-0.00178772 12.228 -5.19026 46.4925 9.3804 46.4925C14.1798 46.4925 17.4227 43.2038 19.4981 39.5971C19.2818 41.6128 19.1522 42.9918 19.109 43.2568C18.8493 45.3785 22.0922 45.2195 22.2653 43.4162C22.3949 42.3025 22.8704 37.5815 23.2595 33.9218C23.4758 31.8531 25.5509 28.0341 27.8861 28.0341C28.448 28.0341 28.7939 28.7238 28.7507 29.3071C28.6643 29.9968 27.6698 38.9605 27.713 40.2868C27.8861 44.0525 30.0911 44.9012 32.1665 44.9012C33.8096 44.9012 35.1497 43.9465 36.2306 42.4615C36.9659 43.9465 38.09 44.9012 39.6464 44.9012C43.1486 44.9012 44.3593 41.8252 44.3593 41.8252C44.3593 41.8252 44.7914 44.9012 47.8183 44.9012C53.9578 44.9012 55.3846 31.8001 55.6873 27.3978C56.0332 27.3978 58.195 27.5568 58.5841 29.0418C58.93 30.4741 57.8491 35.0355 57.7627 39.7561C57.7195 42.2492 58.4545 44.9012 61.654 44.9012C63.5998 44.9012 65.1562 43.7875 66.2371 42.5675C66.9721 43.9998 68.0965 44.9012 69.6097 44.9012C71.3391 44.9012 72.5065 44.2118 73.2415 43.5225C73.1983 43.9465 73.1551 44.3175 73.1118 44.7422V44.7952C73.1118 44.7422 65.0263 51.9029 65.0263 58.6389C65.0263 61.2909 66.0211 62.9883 68.572 62.9883C73.6306 62.9883 75.2302 54.6609 75.9654 47.8185C76.0086 47.5002 76.0518 47.1822 76.0518 46.9169C76.7989 46.2057 77.5484 45.4984 78.3003 44.7952C79.338 43.7875 80.3757 42.8328 81.543 41.7718C81.5862 41.8778 81.6726 41.9838 81.7158 42.0902C82.7967 43.8935 84.3966 44.8482 86.3424 44.8482C90.0174 44.8482 93.4332 41.4005 95.8545 38.0058C96.2436 39.6501 96.8055 41.2415 97.7568 42.5142C98.9244 44.0525 100.524 44.9012 102.34 44.9012C105.842 44.9012 108.263 41.4535 109.561 37.4755C110.512 38.0058 111.593 38.3241 112.717 38.4301C112.976 39.8091 113.409 41.0822 114.1 42.0898C114.965 43.3632 116.565 44.9012 119.375 44.9012C122.186 44.9012 124.953 43.0448 126.812 41.5065L127.071 41.9838C127.936 43.3102 129.623 44.9012 132.476 44.9012C137.535 44.9012 140.345 39.8091 140.475 39.5971C140.864 38.7485 140.648 37.5285 139.956 36.9451ZM68.9608 59.2226C68.4855 59.2226 68.1397 58.8512 68.1397 58.1086C68.1397 54.7139 72.4201 50.0992 72.4633 50.0992C71.9443 54.6609 70.4311 59.2226 68.9611 59.2226M88.0722 27.3978C88.4613 27.3978 88.5477 27.7688 88.6341 27.9811C88.8072 28.7238 88.2018 31.5348 83.5755 35.4598C83.8347 31.7471 85.6941 27.3978 88.0722 27.3978ZM102.773 13.978C104.113 13.978 103.032 19.6004 98.7515 27.4508C99.746 17.0017 101.13 13.978 102.773 13.978ZM119.894 27.3978C120.586 27.3978 120.63 28.2464 120.673 28.5644C120.846 30.1558 119.635 33.0201 115.657 34.6641C116.09 31.2164 117.948 27.3978 119.894 27.3978ZM132.865 27.3978C133.341 27.3978 133.601 27.8221 133.73 28.3524C133.99 29.4661 132.779 32.2771 128.542 35.4598C128.628 31.7471 130.444 27.3978 132.865 27.3978Z" fill="#222222"/>
</g>
</g>
<defs>
<clipPath id="clip0_119_1660">
<rect width="140" height="63" fill="white" transform="translate(0.333496)"/>
</clipPath>
<clipPath id="clip1_119_1660">
<rect width="140" height="53" fill="white" transform="translate(0.666992 10)"/>
</clipPath>
</defs>
</svg>
