<svg width="121" height="53" viewBox="0 0 121 53" fill="none" xmlns="http://www.w3.org/2000/svg">
<g clip-path="url(#clip0_119_1670)">
<path d="M0.333496 28.1753C0.333496 19.3755 7.26416 13.1014 17.1207 13.1014C20.0461 13.1014 23.239 13.6464 25.0302 14.4588V19.9542H24.8297L17.9769 15.0485C17.6233 14.9258 16.8856 14.8465 16.1862 14.8465C11.002 14.8465 7.34162 19.6761 7.34162 26.3399C7.34162 33.7823 11.9029 39.5778 17.6989 39.5778C18.0915 39.5713 18.4827 39.5304 18.8682 39.4557L18.7566 39.4095V27.0518L16.999 24.9046V24.7045H27.2438V24.9046L25.4862 27.0518V41.4249H25.2861L20.847 40.0565C19.1342 40.9131 16.4863 41.536 14.1058 41.536C5.94046 41.536 0.333496 36.1181 0.333496 28.1753ZM31.983 24.4039L29.9138 22.3351V22.1774L37.2783 20.2322H37.6675L37.9441 24.4039H38.1774C39.8575 21.4448 41.337 20.2322 43.2057 20.2322C43.9845 20.2322 44.6521 20.4659 44.997 20.7776V27.0849H44.7969L40.8607 24.4366C40.7437 24.412 40.6243 24.4007 40.5048 24.4029C39.6929 24.4029 38.5246 25.1817 38.1354 26.1162V38.8877L40.1927 40.7582V40.9583H30.2254V40.7582L31.983 38.889V24.4039ZM46.6674 40.9463V40.7904L48.4249 38.877V24.4039L46.3561 22.3794V22.1774L54.1878 20.2304H54.5769V38.8881L56.3349 40.8015V40.9574H46.6674V40.9463ZM48.1455 14.0471C48.1455 12.1337 49.4365 10.9653 51.4942 10.9653C53.5519 10.9653 54.8424 12.1337 54.8424 14.0471C54.8424 15.9162 53.5635 17.0841 51.4942 17.0841C49.425 17.0841 48.1455 15.9162 48.1455 14.0471ZM59.1939 40.9463V40.7462L60.9515 38.877V23.0359H58.1814V22.8801L60.9845 20.4659C61.8413 14.8147 65.3123 10.9653 69.5507 10.9653C70.6073 10.9653 71.8559 11.1991 72.3539 11.4771L71.7311 16.5834H71.5307L65.9579 14.125C64.7453 14.2472 63.6983 16.2274 63.6983 18.0186C63.6983 20.3212 65.4563 21.6006 68.4473 21.6006H73.6313C73.9433 15.6068 77.2913 10.9653 81.4631 10.9653C82.4423 10.9653 83.6105 11.1991 84.1553 11.4771L83.4881 16.5391H83.2877L78.3389 14.2011C77.2043 14.3122 76.3145 15.9918 76.3145 17.8278C76.3145 20.3175 77.9501 21.6084 81.1097 21.6084H93.0245L92.7119 23.8372V38.96L94.4699 40.7955V40.9514H84.7805V40.7955L86.5715 38.8821V23.0359H79.7519V38.8881L82.0883 40.7582V40.9583H71.8067V40.7582L73.5977 38.8448V23.0359H67.0925V38.8881L69.4283 40.7582V40.9583H59.193L59.1939 40.9463ZM86.3045 14.0471C86.3045 12.1337 87.5837 10.9653 89.6531 10.9653C91.7555 10.9653 93.0461 12.1337 93.0461 14.0471C93.0461 15.9162 91.7549 17.0841 89.6531 17.0841C87.5837 17.0841 86.3045 15.9162 86.3045 14.0471ZM105.261 38.8881L107.018 40.7582V40.9583H97.3511V40.7582L99.1091 38.889V24.4117L97.0397 22.3429V22.1424L104.404 20.229H104.794L105.07 23.8889H105.337C107.472 21.4305 109.775 20.229 112.345 20.229C115.816 20.229 118.23 22.4882 118.23 25.6801V38.8849L119.988 40.754V40.9541H110.287V40.754L112.078 38.7627V26.9046C112.078 24.9912 110.91 23.8234 109.041 23.8234C107.797 23.8234 106.552 24.3236 105.26 25.3361L105.261 38.8881Z" fill="black"/>
</g>
<defs>
<clipPath id="clip0_119_1670">
<rect width="120" height="52" fill="white" transform="translate(0.333496 0.5)"/>
</clipPath>
</defs>
</svg>
