<svg width="161" height="41" viewBox="0 0 161 41" fill="none" xmlns="http://www.w3.org/2000/svg">
<g clip-path="url(#clip0_2_379)">
<path d="M44.3327 10.4999L44.2756 10.5189V19.033H36.1995V10.5189L36.1424 10.4999C34.9424 10.2523 33.7615 10.2523 32.5806 10.4999L32.5234 10.5189V30.0995L32.5806 30.1186C33.171 30.2328 33.7615 30.309 34.3519 30.309C34.9424 30.309 35.5329 30.2518 36.1424 30.1186L36.1995 30.0995V22.1568H44.2756V30.0995L44.3327 30.1186C45.5137 30.3662 46.7136 30.3662 47.8946 30.1186L47.9517 30.0995V10.5189L47.8946 10.4999C46.6946 10.2713 45.5137 10.2713 44.3327 10.4999ZM56.8468 16.0046C52.6182 16.0046 50.104 18.6711 50.104 23.1473C50.104 25.471 50.6374 27.3186 51.704 28.5948C52.8659 29.9852 54.5992 30.69 56.9039 30.69C60.8086 30.69 62.8086 28.3662 63.0562 26.0615V26.0043L62.999 25.9853C62.0086 25.6615 61.0943 25.5853 60.0086 25.7377H59.9705V25.7758C59.7419 27.1472 58.5991 27.9662 56.942 27.9662C54.6182 27.9662 53.4754 26.6901 53.4373 24.0615H63.2657V24.0044C63.5514 21.4139 63.0371 19.3187 61.78 17.8902C60.6182 16.6712 58.923 16.0046 56.8468 16.0046ZM56.8086 18.5378C57.7801 18.5378 58.5991 18.8426 59.1515 19.433C59.7229 20.0426 60.0086 20.9568 59.9514 22.0425H53.4373C53.4945 19.814 54.7326 18.5378 56.8086 18.5378ZM65.6466 10.4999L65.5894 10.5189V30.0995L65.6466 30.1186C66.199 30.2328 66.7514 30.309 67.3228 30.309C67.8751 30.309 68.4466 30.2518 68.999 30.1186L69.0561 30.0995V10.5189L68.999 10.4999C67.8942 10.2523 66.7704 10.2713 65.6466 10.4999ZM78.694 16.0046C77.2274 16.0046 75.6845 16.5759 74.2178 17.6616L74.0083 16.6331L73.9702 16.6141C73.1322 16.3664 72.4465 16.3664 71.6274 16.6141L71.5894 16.6331V36.1184L71.6465 36.1375C72.1989 36.2518 72.7512 36.3279 73.3226 36.3279C73.8941 36.3279 74.4464 36.2708 74.9988 36.1375L75.0559 36.1184V29.6042C76.2178 30.3471 77.4559 30.69 78.8463 30.69C82.6935 30.69 84.9983 27.9662 84.9983 23.3758C84.9799 18.7092 82.6935 16.0046 78.694 16.0046ZM74.9988 19.8711C76.0274 19.1664 76.9798 18.8426 78.0082 18.8426C80.3511 18.8426 81.6271 20.4616 81.6271 23.433C81.6271 26.3472 80.3703 27.89 77.9702 27.89C76.9416 27.89 75.9702 27.5662 74.9988 26.8805V19.8711ZM99.6839 19.5664C99.0935 19.3378 98.5599 19.1474 98.0463 18.9759C95.3791 18.0235 93.7791 17.4522 93.7415 16.0046C93.7223 15.3378 93.9319 14.7665 94.3887 14.2902C95.0559 13.6046 96.1791 13.2426 97.5511 13.2426C98.9031 13.2426 99.9511 13.6046 100.579 14.2712C101.113 14.8426 101.342 15.6236 101.284 16.595V16.6522L101.342 16.6712C102.503 16.8998 103.665 16.8807 104.922 16.595L104.979 16.5759V16.5188C105.055 14.8807 104.56 13.4522 103.55 12.3856C102.294 11.0522 100.274 10.3475 97.7223 10.3285H97.6463C92.9031 10.3285 90.0463 12.4427 90.0079 15.9855C89.9887 19.5092 93.2271 20.6902 95.1695 21.3758L95.4559 21.4902C96.1031 21.7187 96.7127 21.9282 97.2463 22.1187C99.8743 23.033 101.455 23.5854 101.513 24.9758C101.532 25.6996 101.322 26.2901 100.884 26.7472C100.255 27.3948 99.1511 27.7186 97.6839 27.6995C96.0647 27.6995 94.8271 27.2805 94.1223 26.5186C93.6079 25.9472 93.3983 25.2234 93.4743 24.3472V24.2901L93.4175 24.271C92.2367 24.0425 91.0367 24.0615 89.8559 24.3282L89.8175 24.3472V24.4044C89.7223 25.9853 90.1983 27.3948 91.2271 28.4805C92.5983 29.9471 94.8463 30.709 97.7415 30.69C100.579 30.69 105.246 29.9281 105.284 24.9758C105.227 21.6806 102.408 20.614 99.6839 19.5664ZM113.798 18.8426C116.141 18.8426 116.694 20.3663 116.808 21.2616V21.3187H116.865C117.95 21.4902 118.979 21.4139 119.97 21.1282L120.026 21.1092V21.0521C119.931 19.6806 119.341 18.4426 118.37 17.5474C117.265 16.5378 115.684 15.9855 113.818 15.9855C109.36 15.9855 106.903 18.595 106.903 23.3378C106.903 28.0614 109.341 30.6709 113.76 30.6709C115.665 30.6709 117.265 30.1186 118.389 29.071C119.322 28.1948 119.894 27.0138 120.007 25.7377V25.6806L119.95 25.6615C119.017 25.3377 117.989 25.2806 116.865 25.471H116.826V25.5091C116.522 27.6424 114.446 27.7948 113.818 27.7948C111.418 27.7948 110.294 26.3662 110.294 23.2996C110.274 20.2711 111.398 18.8426 113.798 18.8426ZM128.465 16.0046C124.084 16.0046 121.665 18.614 121.665 23.3568C121.665 28.0805 124.084 30.69 128.465 30.69C132.846 30.69 135.265 28.0805 135.265 23.3568C135.265 18.614 132.846 16.0046 128.465 16.0046ZM131.95 23.3758C131.95 26.4043 130.807 27.871 128.465 27.871C126.122 27.871 124.979 26.4043 124.979 23.3758C124.979 20.2902 126.084 18.8426 128.465 18.8426C130.807 18.8426 131.95 20.3282 131.95 23.3758ZM146.236 16.6331L146.178 16.6522V26.4043C145.074 27.3567 144.064 27.7758 142.902 27.7758C141.264 27.7758 140.559 26.8424 140.559 24.633V16.6331L140.502 16.6141C139.398 16.3474 138.274 16.3474 137.15 16.6141L137.093 16.6331V25.4138C137.093 28.7471 138.883 30.6709 142.026 30.6709C143.702 30.6709 145.169 30.0233 146.75 28.5757L147.074 30.0995L147.112 30.1186C147.912 30.3281 148.75 30.3281 149.55 30.1186L149.607 30.0995V16.6331L149.55 16.6141C148.483 16.3474 147.359 16.3474 146.236 16.6331ZM160.159 27.49L160.14 27.4329L160.083 27.4519C158.75 27.7567 157.969 27.7376 157.512 27.3758C157.13 27.071 156.959 26.5377 156.959 25.6996V19.4521H159.664L159.683 19.395C159.874 18.4806 159.874 17.5474 159.683 16.6141L159.664 16.5569H156.959V12.8618L156.902 12.8427C155.798 12.595 154.674 12.595 153.569 12.8427L153.512 12.8618L153.53 16.5569H151.817L151.798 16.6141C151.588 17.5283 151.588 18.4806 151.798 19.395L151.817 19.4521H153.53L153.55 25.452C153.55 27.1282 153.645 28.8234 154.807 29.7947C155.435 30.309 156.35 30.5757 157.53 30.5757C158.254 30.5757 159.093 30.4805 160.064 30.29H160.102L160.121 30.2518C160.388 29.3566 160.407 28.4234 160.159 27.49Z" fill="black"/>
<path d="M2.21918 23.0139L11.4761 13.757C12.6761 12.576 13.4189 10.9189 13.4189 9.10944C13.4189 7.31899 12.6952 5.68093 11.5333 4.5L2.27632 13.757C1.07634 14.9379 0.333496 16.595 0.333496 18.4045C0.333496 20.214 1.05729 21.833 2.21918 23.0139ZM24.6378 17.6045L15.3809 26.8615C14.1809 28.0424 13.438 29.6995 13.438 31.509C13.438 33.2994 14.1618 34.9375 15.3237 36.1185L24.5807 26.8615C25.7806 25.6806 26.5235 24.0234 26.5235 22.2139C26.5235 20.4045 25.7997 18.7854 24.6378 17.6045ZM24.5807 13.776C25.7806 12.5951 26.5235 10.938 26.5235 9.12848C26.5235 7.33804 25.7997 5.69998 24.6378 4.51905L2.27632 26.8615C1.07634 28.0614 0.333496 29.6995 0.333496 31.5281C0.333496 33.3185 1.05729 34.9566 2.21918 36.1375L24.5807 13.776Z" fill="black"/>
</g>
<defs>
<clipPath id="clip0_2_379">
<rect width="160" height="40" fill="white" transform="translate(0.333496 0.5)"/>
</clipPath>
</defs>
</svg>
