<svg width="141" height="63" viewBox="0 0 141 63" fill="none" xmlns="http://www.w3.org/2000/svg">
<g clip-path="url(#clip0_2_364)">
<path d="M74.4501 20.4278C74.4501 22.0023 73.1817 23.2707 71.6067 23.2707C70.0324 23.2707 68.7641 22.0023 68.7641 20.4278C68.7641 18.8533 69.9887 17.585 71.6067 17.585C73.2251 17.6287 74.4501 18.8971 74.4501 20.4278ZM62.7285 26.1572C62.7285 26.4197 62.7285 26.857 62.7285 26.857C62.7285 26.857 61.3726 25.1076 58.486 25.1076C53.7188 25.1076 50.0012 28.7377 50.0012 33.7674C50.0012 38.7533 53.675 42.4272 58.486 42.4272C61.4164 42.4272 62.7285 40.634 62.7285 40.634V41.3776C62.7285 41.7274 62.9909 41.9898 63.3408 41.9898H66.8834V25.545C66.8834 25.545 63.6469 25.545 63.3408 25.545C62.9909 25.545 62.7285 25.8511 62.7285 26.1572ZM62.7285 36.6977C62.0724 37.6599 60.7603 38.4909 59.1858 38.4909C56.3867 38.4909 54.2436 36.7415 54.2436 33.7674C54.2436 30.7933 56.3867 29.0439 59.1858 29.0439C60.7166 29.0439 62.1162 29.9186 62.7285 30.8371V36.6977ZM69.5076 25.545H73.706V41.9898H69.5076V25.545ZM132.225 25.1076C129.339 25.1076 127.983 26.857 127.983 26.857V17.6287H123.785V41.9898C123.785 41.9898 127.021 41.9898 127.327 41.9898C127.677 41.9898 127.939 41.6837 127.939 41.3776V40.634C127.939 40.634 129.295 42.4272 132.182 42.4272C136.949 42.4272 140.667 38.7533 140.667 33.7674C140.667 28.7815 136.949 25.1076 132.225 25.1076ZM131.526 38.4472C129.908 38.4472 128.639 37.6162 127.983 36.654V30.7933C128.639 29.9186 130.039 29.0002 131.526 29.0002C134.325 29.0002 136.468 30.7496 136.468 33.7237C136.468 36.6977 134.325 38.4472 131.526 38.4472ZM121.598 32.2366V42.0336H117.399V32.7177C117.399 30.0061 116.524 28.9127 114.163 28.9127C112.894 28.9127 111.582 29.5687 110.751 30.5309V41.9898H106.552V25.545H109.876C110.226 25.545 110.488 25.8511 110.488 26.1572V26.857C111.713 25.5887 113.332 25.1076 114.949 25.1076C116.787 25.1076 118.317 25.6325 119.542 26.6821C121.029 27.9068 121.598 29.4813 121.598 32.2366ZM96.3615 25.1076C93.4754 25.1076 92.1195 26.857 92.1195 26.857V17.6287H87.9209V41.9898C87.9209 41.9898 91.157 41.9898 91.4629 41.9898C91.8129 41.9898 92.0754 41.6837 92.0754 41.3776V40.634C92.0754 40.634 93.4313 42.4272 96.3181 42.4272C101.085 42.4272 104.803 38.7533 104.803 33.7674C104.846 28.7815 101.129 25.1076 96.3615 25.1076ZM95.6622 38.4472C94.0438 38.4472 92.7754 37.6162 92.1195 36.654V30.7933C92.7754 29.9186 94.1747 29.0002 95.6622 29.0002C98.4608 29.0002 100.604 30.7496 100.604 33.7237C100.604 36.6977 98.4608 38.4472 95.6622 38.4472ZM84.2907 25.1076C85.5591 25.1076 86.215 25.3263 86.215 25.3263V29.2188C86.215 29.2188 82.7157 28.0379 80.5289 30.5309V42.0336H76.3303V25.545C76.3303 25.545 79.5671 25.545 79.873 25.545C80.223 25.545 80.4855 25.8511 80.4855 26.1572V26.857C81.273 25.9386 82.9782 25.1076 84.2907 25.1076ZM40.6853 40.5028C40.4667 39.978 40.248 39.4094 40.0293 38.9283C39.6794 38.141 39.3295 37.3975 39.0234 36.6977L38.9796 36.654C35.9618 30.0936 32.7254 23.4457 29.3139 16.8852L29.1827 16.6228C28.8328 15.9667 28.4829 15.2669 28.133 14.5672C27.6956 13.7799 27.2583 12.9489 26.5585 12.1616C25.159 10.4122 23.1471 9.45 21.004 9.45C18.8172 9.45 16.8491 10.4122 15.4057 12.0742C14.7497 12.8614 14.2686 13.6924 13.8312 14.4797C13.4814 15.1795 13.1314 15.8792 12.7816 16.5353L12.6503 16.7977C9.2827 23.3582 6.00244 30.0061 2.98463 36.5665L2.9409 36.654C2.63474 37.3538 2.28485 38.0973 1.93496 38.8846C1.71628 39.3657 1.4976 39.8905 1.27892 40.4591C0.710345 42.0773 0.535399 43.6081 0.754081 45.1826C1.23518 48.4628 3.422 51.2182 6.4398 52.4428C7.57695 52.9239 8.75784 53.1426 9.98242 53.1426C10.3323 53.1426 10.7697 53.0988 11.1196 53.0551C12.5629 52.8802 14.0499 52.3991 15.4932 51.5681C17.2864 50.5622 18.9921 49.1189 20.9166 47.0195C22.8409 49.1189 24.5904 50.5622 26.3398 51.5681C27.7831 52.3991 29.2701 52.8802 30.7135 53.0551C31.0633 53.0988 31.5007 53.1426 31.8506 53.1426C33.0752 53.1426 34.2999 52.9239 35.3933 52.4428C38.4548 51.2182 40.5979 48.4191 41.079 45.1826C41.4289 43.6518 41.2539 42.121 40.6853 40.5028ZM20.9602 42.7771C18.5985 39.803 17.0678 37.0039 16.5429 34.6422C16.3242 33.6362 16.2805 32.7615 16.4117 31.9742C16.4991 31.2745 16.7616 30.6621 17.1115 30.1373C17.9425 28.9564 19.3421 28.2129 20.9602 28.2129C22.5785 28.2129 24.0218 28.9127 24.8091 30.1373C25.159 30.6621 25.4213 31.2745 25.5088 31.9742C25.6401 32.7615 25.5963 33.6799 25.3777 34.6422C24.8528 36.9601 23.322 39.7593 20.9602 42.7771ZM38.411 44.8327C38.1049 47.107 36.5742 49.0751 34.431 49.9498C33.3814 50.3872 32.2442 50.5184 31.1071 50.3872C30.0137 50.256 28.9203 49.9061 27.7831 49.25C26.2086 48.3753 24.6341 47.0195 22.7972 45.0076C25.6838 41.465 27.4333 38.2285 28.0893 35.3419C28.3954 33.9861 28.4392 32.7615 28.308 31.6243C28.133 30.5309 27.7394 29.5249 27.1271 28.6502C25.7713 26.6821 23.497 25.545 20.9602 25.545C18.4236 25.545 16.1493 26.7259 14.7934 28.6502C14.1812 29.5249 13.7875 30.5309 13.6125 31.6243C13.4376 32.7615 13.4814 34.0298 13.8312 35.3419C14.4873 38.2285 16.2805 41.5087 19.1234 45.0514C17.3302 47.0632 15.7119 48.4191 14.1374 49.2938C13.0003 49.9498 11.9069 50.2998 10.8135 50.4309C9.63256 50.5622 8.49541 50.3872 7.48947 49.9936C5.3464 49.1189 3.81562 47.1507 3.50947 44.8764C3.37826 43.783 3.46573 42.6896 3.90309 41.465C4.03431 41.0276 4.25299 40.5903 4.47167 40.0654C4.77782 39.3657 5.12772 38.6221 5.4776 37.8786L5.52134 37.7912C8.53916 31.2745 11.7756 24.6265 15.1433 18.1535L15.2746 17.8911C15.6244 17.235 15.9743 16.5353 16.3242 15.8792C16.6741 15.1795 17.0678 14.5234 17.5489 13.9548C18.4673 12.9052 19.6919 12.3366 21.0477 12.3366C22.4036 12.3366 23.6282 12.9052 24.5466 13.9548C25.0277 14.5234 25.4213 15.1795 25.7713 15.8792C26.1211 16.5353 26.4711 17.235 26.8209 17.8911L26.9522 18.1535C30.2761 24.6702 33.5126 31.3181 36.5304 37.8349V37.8786C36.8803 38.5784 37.1865 39.3657 37.5363 40.0654C37.755 40.5903 37.9737 41.0276 38.1049 41.465C38.4548 42.6021 38.586 43.6955 38.411 44.8327Z" fill="black"/>
</g>
<defs>
<clipPath id="clip0_2_364">
<rect width="140" height="63" fill="white" transform="translate(0.666626)"/>
</clipPath>
</defs>
</svg>
