<svg width="121" height="53" viewBox="0 0 121 53" fill="none" xmlns="http://www.w3.org/2000/svg">
<g clip-path="url(#clip0_2_375)">
<path d="M0.666748 28.1756C0.666748 19.3758 7.59741 13.1017 17.454 13.1017C20.3794 13.1017 23.5723 13.6467 25.3635 14.4591V19.9545H25.1629L18.3102 15.0488C17.9565 14.9261 17.2188 14.8468 16.5194 14.8468C11.3352 14.8468 7.67487 19.6764 7.67487 26.3402C7.67487 33.7826 12.2361 39.5781 18.0321 39.5781C18.4247 39.5716 18.816 39.5307 19.2014 39.456L19.0898 39.4098V27.0521L17.3323 24.9049V24.7048H27.577V24.9049L25.8195 27.0521V41.4252H25.6194L21.1803 40.0568C19.4674 40.9134 16.8196 41.5363 14.4391 41.5363C6.27371 41.5363 0.666748 36.1184 0.666748 28.1756ZM32.3163 24.4042L30.247 22.3354V22.1777L37.6116 20.2325H38.0007L38.2773 24.4042H38.5106C40.1907 21.4451 41.6703 20.2325 43.539 20.2325C44.3177 20.2325 44.9853 20.4662 45.3302 20.7779V27.0852H45.1301L41.194 24.4369C41.077 24.4123 40.9576 24.401 40.8381 24.4032C40.0261 24.4032 38.8578 25.182 38.4687 26.1165V38.888L40.5259 40.7585V40.9586H30.5587V40.7585L32.3163 38.8893V24.4042ZM47.0006 40.9466V40.7907L48.7582 38.8773V24.4042L46.6894 22.3797V22.1777L54.521 20.2307H54.9101V38.8884L56.6682 40.8018V40.9577H47.0006V40.9466ZM48.4788 14.0474C48.4788 12.134 49.7697 10.9656 51.8275 10.9656C53.8852 10.9656 55.1757 12.134 55.1757 14.0474C55.1757 15.9165 53.8967 17.0844 51.8275 17.0844C49.7582 17.0844 48.4788 15.9165 48.4788 14.0474ZM59.5272 40.9466V40.7465L61.2847 38.8773V23.0362H58.5147V22.8804L61.3177 20.4662C62.1745 14.815 65.6456 10.9656 69.8839 10.9656C70.9406 10.9656 72.1891 11.1994 72.6871 11.4774L72.0644 16.5837H71.864L66.2912 14.1253C65.0786 14.2475 64.0316 16.2277 64.0316 18.0189C64.0316 20.3215 65.7896 21.6009 68.7806 21.6009H73.9646C74.2766 15.6071 77.6245 10.9656 81.7964 10.9656C82.7756 10.9656 83.9438 11.1994 84.4886 11.4774L83.8214 16.5394H83.621L78.6721 14.2013C77.5376 14.3125 76.6478 15.9921 76.6478 17.8281C76.6478 20.3178 78.2833 21.6087 81.4429 21.6087H93.3577L93.0452 23.8375V38.9603L94.8031 40.7958V40.9517H85.1137V40.7958L86.9047 38.8824V23.0362H80.0852V38.8884L82.4215 40.7585V40.9586H72.14V40.7585L73.931 38.8451V23.0362H67.4258V38.8884L69.7616 40.7585V40.9586H59.5263L59.5272 40.9466ZM86.6378 14.0474C86.6378 12.134 87.9169 10.9656 89.9864 10.9656C92.0888 10.9656 93.3793 12.134 93.3793 14.0474C93.3793 15.9165 92.0882 17.0844 89.9864 17.0844C87.9169 17.0844 86.6378 15.9165 86.6378 14.0474ZM105.594 38.8884L107.352 40.7585V40.9586H97.6843V40.7585L99.4424 38.8893V24.412L97.373 22.3432V22.1427L104.737 20.2293H105.127L105.403 23.8892H105.67C107.806 21.4308 110.109 20.2293 112.678 20.2293C116.149 20.2293 118.563 22.4885 118.563 25.6804V38.8852L120.321 40.7543V40.9544H110.62V40.7543L112.411 38.763V26.9049C112.411 24.9915 111.244 23.8237 109.374 23.8237C108.13 23.8237 106.885 24.3239 105.594 25.3364L105.594 38.8884Z" fill="black"/>
</g>
<defs>
<clipPath id="clip0_2_375">
<rect width="120" height="52" fill="white" transform="translate(0.666748 0.5)"/>
</clipPath>
</defs>
</svg>
