<svg width="120" height="61" viewBox="0 0 120 61" fill="none" xmlns="http://www.w3.org/2000/svg">
<path fill-rule="evenodd" clip-rule="evenodd" d="M63.0837 22.8521C62.0802 22.008 60.3676 21.5865 57.9448 21.5865H52.4802V38.4739H56.5663V33.1812H58.3967C60.6182 33.1812 62.2473 32.6922 63.284 31.7134C64.4518 30.6169 65.0394 29.1568 65.0394 27.334C65.0394 25.4438 64.3873 23.9495 63.0837 22.8521ZM58.2951 29.3599H56.5663V25.4078H58.1195C60.0087 25.4078 60.9534 26.0704 60.9534 27.3957C60.9534 28.704 60.0667 29.3599 58.2951 29.3599ZM72.0316 21.5856H67.7707V38.4729H76.9703V34.6508H72.0316V21.5856ZM85.3179 21.5856L78.6253 38.4729H83.2126L84.0898 36.0179H89.9053L90.7073 38.4729H95.3463L88.7007 21.5856H85.3179ZM85.2678 32.5992L87.023 26.827L88.7508 32.5992H85.2678Z" fill="black"/>
<path fill-rule="evenodd" clip-rule="evenodd" d="M97.4743 38.4729H101.737V21.5856H97.4743V38.4729ZM118.282 24.7508C117.744 23.9703 117.053 23.3072 116.25 22.8018C114.964 21.991 113.209 21.5866 110.986 21.5866H105.371V38.4729H111.939C114.312 38.4729 116.217 37.6973 117.654 36.1442C119.092 34.5919 119.809 32.5318 119.809 29.9657C119.809 27.9246 119.301 26.1862 118.282 24.7508ZM111.463 34.6499H109.633V25.4087H111.488C112.792 25.4087 113.794 25.817 114.496 26.6305C115.199 27.4442 115.549 28.5986 115.549 30.0929C115.549 33.1309 114.187 34.6499 111.463 34.6499ZM17.8833 7.40776L4.07286 11.0248L0.26684 24.9132L5.02697 29.8005L0.189941 34.6071L3.77191 48.5562L17.5225 52.3983L22.3605 47.5907L27.1206 52.4771L40.9311 48.86L44.7362 34.9708L39.977 30.0853L44.814 25.2786L41.232 11.3286L27.4795 7.48656L22.6434 12.2932L17.8833 7.40776ZM9.40833 13.6964L16.6833 11.79L19.8647 15.0559L15.2251 19.666L9.40833 13.6964ZM25.3786 15.0995L28.6111 11.8878L35.8548 13.9119L29.9431 19.7856L25.3786 15.0995ZM4.62539 23.7729L6.6295 16.4581L12.4444 22.4277L7.8058 27.0378L4.62539 23.7729ZM32.6763 22.5929L38.5881 16.7172L40.4735 24.0653L37.2419 27.278L32.6763 22.5929ZM17.9592 22.4723L22.5988 17.8622L27.1624 22.5483L22.5238 27.1584L17.9592 22.4723ZM10.5409 29.8442L15.1795 25.2341L19.7459 29.9201L15.1054 34.5303L10.5409 29.8442ZM25.259 29.9647L29.8976 25.3546L34.4621 30.0407L29.8225 34.6508L25.259 29.9647ZM4.52855 35.8195L7.76213 32.6059L12.3257 37.2929L6.41589 43.1657L4.52855 35.8195ZM17.8396 37.3366L22.4792 32.7265L27.0438 37.4125L22.4052 42.0227L17.8396 37.3366ZM32.5567 37.4581L37.1963 32.848L40.3776 36.1128L38.3744 43.4277L32.5567 37.4581ZM9.14911 45.9739L15.0599 40.0983L19.6263 44.7843L16.3928 47.998L9.14911 45.9739ZM25.1393 44.829L29.778 40.2189L35.5938 46.1894L28.3197 48.0948L25.1393 44.829Z" fill="black"/>
</svg>
