<svg width="161" height="41" viewBox="0 0 161 41" fill="none" xmlns="http://www.w3.org/2000/svg">
<g clip-path="url(#clip0_2_368)">
<path fill-rule="evenodd" clip-rule="evenodd" d="M28.1746 33.2183C25.7684 35.6244 22.085 35.6244 15.4564 35.6244C8.82914 35.6244 5.14567 35.623 2.73815 33.2183C0.333374 30.812 0.333374 27.1273 0.333374 20.5C0.333374 13.8742 0.333374 10.1879 2.73815 7.78315C5.14567 5.37563 8.82914 5.37563 15.4564 5.37563C22.085 5.37563 25.7684 5.37563 28.1746 7.78315C30.5821 10.1893 30.5821 13.8727 30.5821 20.5C30.5821 27.1273 30.5821 30.812 28.1746 33.2183ZM16.9028 18.5572L7.77319 18.5393L7.77181 20.7874L16.3886 20.8038L15.8812 23.0478L7.77181 23.0313V25.278L15.3739 25.2944H15.3615C15.0673 26.4274 15.8964 27.5508 17.0348 27.5508H18.6133L19.485 25.2944H15.3739L15.8812 23.0505L21.0483 23.0602L21.8499 20.8135L16.3996 20.8038L16.9097 18.5572L24.2876 18.5215L25.202 16.2844L17.4198 16.3106L16.9028 18.5572ZM16.0902 14.0557L7.77319 14.0378L7.77181 16.2858L17.4184 16.3024L17.505 15.9105C17.7209 14.9645 17.0307 14.0557 16.0902 14.0557Z" fill="black"/>
<path d="M54.1038 29.2438H57.9701L58.344 26.9318H59.0473C59.6095 28.6313 61.1318 29.4796 62.7028 29.4796C65.958 29.4796 67.9504 27.3574 67.9504 22.8297C67.9504 18.8435 66.3096 16.1799 62.7949 16.1799C61.1094 16.1799 59.6095 17.1929 59.0473 18.7012H58.344L58.5784 15.1641V11.556H54.1038V29.2438ZM58.5784 23.2302V22.4516C58.5784 20.7996 59.4923 19.7867 61.0857 19.7867C62.4684 19.7867 63.4047 20.4006 63.4047 21.98V23.7018C63.4047 24.9994 62.7726 25.8715 61.1081 25.8715C59.4463 25.8715 58.5784 24.8571 58.5784 23.2302ZM69.1211 22.8521C69.1211 26.8384 71.7219 29.4796 75.6803 29.4796C78.9619 29.4796 81.373 27.7342 81.7026 25.0469H77.4383C77.3211 25.7766 76.5718 26.2007 75.5407 26.2007C74.4859 26.2007 73.618 25.5422 73.618 24.5502V23.8902H81.5617C81.7026 23.3962 81.7479 22.7112 81.7479 22.0512C81.7479 18.2309 79.008 16.1785 75.5407 16.1785C71.9326 16.1785 69.1211 18.5839 69.1211 22.8521ZM73.618 21.2015V20.9433C73.618 20.0936 74.4148 19.4797 75.4933 19.4797C76.5718 19.4797 77.2751 20.0936 77.2751 20.9433V21.2015H73.618ZM92.1806 16.3431C90.7517 16.3431 89.65 17.1691 89.2982 19.2202H88.5953L88.0564 16.4143H82.1754V20.0225H84.1217V29.2438H88.5961V24.0088C88.5961 21.3201 90.2598 20.5652 92.1559 20.5652C92.4154 20.5652 92.6733 20.5889 92.9535 20.6126V16.4143C92.6996 16.3627 92.4401 16.339 92.1806 16.3431ZM94.1428 16.4143V33.1827H98.6172V30.494L98.3824 26.9556H99.086C99.648 28.4652 101.149 29.4796 102.835 29.4796C106.348 29.4796 107.99 26.8147 107.99 22.8297C107.99 18.3021 105.997 16.1799 102.74 16.1799C101.172 16.1799 99.648 17.0282 99.086 18.7249H98.3824L98.0074 16.4143H94.1428ZM98.6172 22.4279C98.6172 20.8011 99.4848 19.788 101.149 19.788C102.811 19.788 103.443 20.6601 103.443 21.9563V23.678C103.443 25.2589 102.507 25.8715 101.125 25.8715C99.531 25.8715 98.6172 24.8571 98.6172 23.2065V22.4279ZM113.547 25.7542V11.556H109.094V25.8254C109.094 27.8765 109.916 29.2452 112.492 29.2452H116.451V25.7556H113.547V25.7542ZM117.275 25.6343C117.275 27.9937 118.984 29.4796 121.609 29.4796C123.787 29.4796 125.31 28.4652 125.803 26.9556H126.433V29.2438H131.121V25.9412H129.503V20.8261C129.503 18.044 127.911 16.1799 123.834 16.1799C120.085 16.1799 117.907 17.8067 118.046 20.967H122.147C122.076 19.9053 122.71 19.5523 123.623 19.5523C124.489 19.5523 125.051 19.9053 125.051 20.8024V21.6982L121.492 21.934C118.984 22.1 117.274 23.2776 117.274 25.637L117.275 25.6343ZM121.772 25.0231C121.772 24.5278 122.124 24.0562 122.921 24.0088L125.052 23.8664V25.3524C124.7 25.8952 123.997 26.2481 123.131 26.2481C122.193 26.2481 121.773 25.8477 121.773 25.3049L121.772 25.0231ZM132.477 29.2438H136.953V22.3804C136.953 20.8722 137.703 19.8104 139.201 19.8104C140.467 19.8104 141.17 20.5415 141.17 22.1224V29.2438H145.667V20.5415C145.667 17.924 144.239 16.1785 141.685 16.1785C139.717 16.1785 138.312 17.098 137.656 18.7012H136.953L136.414 16.4143H132.477V29.2438ZM147.104 22.8521C147.104 26.8384 149.707 29.4796 153.666 29.4796C156.945 29.4796 159.359 27.7342 159.687 25.0469H155.423C155.306 25.7766 154.557 26.2007 153.525 26.2007C152.47 26.2007 151.604 25.5422 151.604 24.5502V23.8902H159.547C159.687 23.3962 159.734 22.7112 159.734 22.0512C159.734 18.2309 156.993 16.1785 153.525 16.1785C149.917 16.1785 147.104 18.5839 147.104 22.8521ZM151.604 21.2015V20.9433C151.604 20.0936 152.401 19.4797 153.478 19.4797C154.557 19.4797 155.26 20.0936 155.26 20.9433V21.2015H151.604ZM43.769 16.4157H52.5997V29.2438H48.1041V20.021H43.769V29.2425H39.2721V20.021H36.9503V16.4157H39.2721V15.3106C39.2721 15.012 39.2762 14.793 39.2832 14.6548C39.2916 14.5097 39.3153 14.3297 39.3529 14.1135C39.3976 13.8986 39.4674 13.6684 39.5581 13.4228C40.0088 12.1768 41.157 11.5573 43.0016 11.5573H46.6502V15.0455H43.769V16.4157ZM48.1264 15.0455V11.556H52.5997V15.0455H48.1264Z" fill="black"/>
</g>
<defs>
<clipPath id="clip0_2_368">
<rect width="160" height="40" fill="white" transform="translate(0.333374 0.5)"/>
</clipPath>
</defs>
</svg>
