<svg width="384" height="262" viewBox="0 0 384 262" fill="none" xmlns="http://www.w3.org/2000/svg">
<path d="M145.156 53.4369L130.032 52.4158L134.133 69.5203L145.156 53.4369Z" fill="#DBB1FF"/>
<path d="M130.032 35.8219L125.674 37.0984L128.237 39.6513L130.032 35.8219Z" fill="#DBB1FF"/>
<path d="M154.128 120.068L140.542 117.26L154.128 131.811V120.068Z" fill="#DBB1FF"/>
<path d="M137.209 175.211L140.542 199.208L150.027 169.849L137.209 175.211Z" fill="#DBB1FF"/>
<path d="M146.438 209.93L141.567 216.568L146.694 216.823L146.438 209.93Z" fill="#DBB1FF"/>
<path fill-rule="evenodd" clip-rule="evenodd" d="M96.6532 33.8216L96.3138 100.353L135.015 138.107L105.864 144.309L126.889 149.046L134.802 233.493L334.387 205.537C334.363 205.54 334.34 205.544 334.316 205.547L43.0192 246.349C34.815 247.499 27.2326 241.779 26.0835 233.575L2.08076 62.215C0.931588 54.0108 6.6508 46.4284 14.855 45.2792L96.6532 33.8216Z" fill="#DBB1FF"/>
<path fill-rule="evenodd" clip-rule="evenodd" d="M164.575 30.558L148.078 94.4661L176.249 138.912H148.078L164.575 149.958L154.169 233.591H339.674C347.958 233.591 354.674 226.875 354.674 218.591V45.558C354.674 37.2737 347.958 30.558 339.674 30.558H164.575Z" fill="#DBB1FF"/>
<path fill-rule="evenodd" clip-rule="evenodd" d="M164.575 30.558L148.078 94.4661L176.249 138.912H148.078L164.575 149.958L154.169 233.591H339.674C347.958 233.591 354.674 226.875 354.674 218.591V45.558C354.674 37.2737 347.958 30.558 339.674 30.558H164.575Z" fill="#DBB1FF"/>
<rect x="340.104" y="5.82227" width="55.3111" height="28.1813" rx="8" transform="rotate(45.1871 340.104 5.82227)" fill="#AE3DFF"/>
<circle cx="12.3034" cy="56.0677" r="2.7987" transform="rotate(-7.57667 12.3034 56.0677)" fill="#E54930"/>
<circle cx="19.8698" cy="55.0614" r="2.7987" transform="rotate(-7.57667 19.8698 55.0614)" fill="#EDB403"/>
<circle cx="27.4363" cy="54.0554" r="2.7987" transform="rotate(-7.57667 27.4363 54.0554)" fill="#44B21D"/>
<path d="M339.631 34.0961L338.028 32.517L339.365 31.16L335.326 27.1806L336.431 26.0587L344.825 25.1052L346.684 26.937L342.389 31.2966L343.415 32.3072L341.994 33.7497L340.968 32.7391L339.631 34.0961ZM338.767 27.7278L340.786 29.7174L343.165 27.3026L343.069 27.2078L338.872 27.6209L338.767 27.7278ZM344.446 39.0509C342.384 37.0191 342.662 34.429 344.862 32.1957C347.052 29.9732 349.648 29.6463 351.71 31.6781C353.762 33.6993 353.473 36.3002 351.284 38.5227C349.083 40.7559 346.498 41.0721 344.446 39.0509ZM345.973 37.5015C347.062 38.5753 347.9 38.5373 349.574 36.8383C351.248 35.1394 351.273 34.3012 350.184 33.2274C349.083 32.1431 348.245 32.1812 346.571 33.8801C344.898 35.5791 344.872 36.4172 345.973 37.5015ZM354.062 48.3142L352.459 46.7351L353.796 45.3781L349.757 41.3988L350.863 40.2768L359.256 39.3234L361.115 41.1551L356.82 45.5147L357.846 46.5253L356.425 47.9678L355.399 46.9572L354.062 48.3142ZM353.198 41.9459L355.217 43.9356L357.597 41.5207L357.501 41.426L353.303 41.8391L353.198 41.9459Z" fill="white"/>
<circle cx="4.77778" cy="4.77778" r="4.77778" transform="matrix(1 0 0 -1 296.223 48.8223)" fill="#BB88E6"/>
<rect width="21.0222" height="4.77778" rx="2.38889" transform="matrix(1 0 0 -1 309.6 45.9556)" fill="#BB88E6"/>
<circle cx="4.77778" cy="4.77778" r="4.77778" transform="matrix(0.988045 -0.154166 -0.154166 -0.988045 36.8281 238.425)" fill="#BB88E6"/>
<rect width="17.9965" height="2.4291" rx="1.21455" transform="matrix(0.988045 -0.154166 -0.154166 -0.988045 46.2402 230.285)" fill="#BB88E6"/>
<rect width="9.97077" height="2.4291" rx="1.21455" transform="matrix(0.988045 -0.154166 -0.154166 -0.988045 47.1973 234.597)" fill="#BB88E6"/>
<circle cx="19.0262" cy="90.5607" r="1.93663" transform="rotate(-8.0337 19.0262 90.5607)" fill="#BB88E6"/>
<circle cx="21.2996" cy="102.003" r="1.93663" transform="rotate(-8.0337 21.2996 102.003)" fill="#BB88E6"/>
<circle cx="23.2098" cy="113.47" r="1.93663" transform="rotate(-8.0337 23.2098 113.47)" fill="#BB88E6"/>
<circle cx="25.1219" cy="124.936" r="1.93663" transform="rotate(-8.0337 25.1219 124.936)" fill="#BB88E6"/>
<rect x="12.5391" y="76.2568" width="28.5653" height="4.84158" rx="2.42079" transform="rotate(-9.72582 12.5391 76.2568)" fill="#BB88E6"/>
<rect x="22.6914" y="88.3893" width="28.4855" height="2.81472" rx="1.40736" transform="rotate(-8.45262 22.6914 88.3893)" fill="#BB88E6"/>
<rect x="24.9648" y="99.8317" width="28.4855" height="2.81472" rx="1.40736" transform="rotate(-8.45262 24.9648 99.8317)" fill="#BB88E6"/>
<rect x="26.875" y="111.298" width="28.4855" height="2.81472" rx="1.40736" transform="rotate(-8.45262 26.875 111.298)" fill="#BB88E6"/>
<rect x="28.7871" y="122.765" width="28.4855" height="2.81472" rx="1.40736" transform="rotate(-8.45262 28.7871 122.765)" fill="#BB88E6"/>
<path fill-rule="evenodd" clip-rule="evenodd" d="M162.382 169.056L325.29 172.947C328.603 173.026 331.384 170.406 331.502 167.094L333.476 111.684C333.594 108.373 331.004 105.624 327.692 105.545L152.273 101.355L176.3 139.241H148.111L164.833 150.111L162.382 169.056Z" fill="#BB88E6"/>
<circle cx="323.345" cy="113.632" r="0.77805" transform="rotate(0.695019 323.345 113.632)" fill="#DBB1FF"/>
<circle cx="325.421" cy="113.657" r="0.77805" transform="rotate(0.695019 325.421 113.657)" fill="#DBB1FF"/>
<circle cx="325.394" cy="115.732" r="0.77805" transform="rotate(0.695019 325.394 115.732)" fill="#DBB1FF"/>
<circle cx="323.319" cy="115.706" r="0.77805" transform="rotate(0.695019 323.319 115.706)" fill="#DBB1FF"/>
<circle cx="323.294" cy="117.781" r="0.77805" transform="rotate(0.695019 323.294 117.781)" fill="#DBB1FF"/>
<circle cx="325.368" cy="117.806" r="0.77805" transform="rotate(0.695019 325.368 117.806)" fill="#DBB1FF"/>
<circle cx="322.86" cy="135.958" r="0.77805" transform="rotate(0.695019 322.86 135.958)" fill="#DBB1FF"/>
<circle cx="324.937" cy="135.983" r="0.77805" transform="rotate(0.695019 324.937 135.983)" fill="#DBB1FF"/>
<circle cx="324.909" cy="138.058" r="0.77805" transform="rotate(0.695019 324.909 138.058)" fill="#DBB1FF"/>
<circle cx="322.835" cy="138.032" r="0.77805" transform="rotate(0.695019 322.835 138.032)" fill="#DBB1FF"/>
<circle cx="322.81" cy="140.107" r="0.77805" transform="rotate(0.695019 322.81 140.107)" fill="#DBB1FF"/>
<circle cx="324.884" cy="140.132" r="0.77805" transform="rotate(0.695019 324.884 140.132)" fill="#DBB1FF"/>
<circle cx="322.987" cy="157.686" r="0.77805" transform="rotate(4.15163 322.987 157.686)" fill="#DBB1FF"/>
<circle cx="325.058" cy="157.836" r="0.77805" transform="rotate(4.15163 325.058 157.836)" fill="#DBB1FF"/>
<circle cx="324.907" cy="159.906" r="0.77805" transform="rotate(4.15163 324.907 159.906)" fill="#DBB1FF"/>
<circle cx="322.837" cy="159.755" r="0.77805" transform="rotate(4.15163 322.837 159.755)" fill="#DBB1FF"/>
<circle cx="322.686" cy="161.825" r="0.77805" transform="rotate(4.15163 322.686 161.825)" fill="#DBB1FF"/>
<circle cx="324.757" cy="161.975" r="0.77805" transform="rotate(4.15163 324.757 161.975)" fill="#DBB1FF"/>
<path fill-rule="evenodd" clip-rule="evenodd" d="M158.712 146.338L157.16 145.299L328.725 149.612L328.7 150.611L158.712 146.338Z" fill="#DBB1FF"/>
<path fill-rule="evenodd" clip-rule="evenodd" d="M166.933 124.489L166.289 123.472L331.592 127.633L331.567 128.633L166.933 124.489Z" fill="#DBB1FF"/>
<path fill-rule="evenodd" clip-rule="evenodd" d="M163.742 157.254L164.228 153.352L185.454 153.802C186.534 153.825 187.39 154.718 187.368 155.798C187.345 156.878 186.451 157.735 185.371 157.712L163.742 157.254Z" fill="#DBB1FF"/>
<path fill-rule="evenodd" clip-rule="evenodd" d="M159.829 113.281L156.166 107.503L169.665 107.767C171.24 107.798 172.492 109.1 172.461 110.675C172.43 112.251 171.128 113.503 169.553 113.472L159.829 113.281Z" fill="#DBB1FF"/>
<rect x="176.334" y="210.637" width="65.428" height="11.6173" rx="3" transform="rotate(1.15994 176.334 210.637)" fill="#BB88E6"/>
<circle cx="182.638" cy="216.722" r="3.13238" transform="rotate(-3.9629 182.638 216.722)" fill="#DBB1FF"/>
<rect x="190.271" y="214.985" width="30.7536" height="2.92007" rx="1.46004" transform="rotate(1.27184 190.271 214.985)" fill="#DBB1FF"/>
<rect x="223.688" y="215.089" width="14.576" height="4.01258" rx="2.00629" transform="rotate(1.27184 223.688 215.089)" fill="#DBB1FF"/>
<path fill-rule="evenodd" clip-rule="evenodd" d="M104.77 108.917L135.11 138.325L105.979 144.621L127.019 149.29L129.127 171.033L94.6146 176.06C91.3355 176.538 88.29 174.267 87.8123 170.988L80.1755 118.563C79.6978 115.284 81.9688 112.239 85.2479 111.761L104.77 108.917Z" fill="#BB88E6"/>
<path d="M85.1797 133.015L123.268 127.178" stroke="#DBB1FF"/>
<path d="M88.4844 155.709L126.78 150.131" stroke="#DBB1FF"/>
<rect x="85.6738" y="116.527" width="13.3778" height="13.3778" rx="4" transform="rotate(-8.28818 85.6738 116.527)" fill="#DBB1FF"/>
<rect x="88.8418" y="138.275" width="13.3778" height="13.3778" rx="4" transform="rotate(-8.28818 88.8418 138.275)" fill="#DBB1FF"/>
<rect x="92.0098" y="160.023" width="13.3778" height="13.3778" rx="4" transform="rotate(-8.28818 92.0098 160.023)" fill="#DBB1FF"/>
</svg>
