<svg width="40" height="40" viewBox="0 0 40 40" fill="none" xmlns="http://www.w3.org/2000/svg">
<mask id="mask0_494_1086" style="mask-type:alpha" maskUnits="userSpaceOnUse" x="0" y="0" width="40" height="40">
<rect width="40" height="40" fill="#D9D9D9"/>
</mask>
<g mask="url(#mask0_494_1086)">
<path d="M11.2493 36.6663C9.99935 36.6663 8.92296 36.2427 8.02018 35.3955C7.1174 34.5483 6.66602 33.4997 6.66602 32.2497V8.99967C6.66602 7.94412 6.9924 6.99967 7.64518 6.16634C8.29796 5.33301 9.15213 4.80523 10.2077 4.58301L26.666 1.33301V27.9997L10.8743 31.1663C10.6243 31.2219 10.416 31.3538 10.2493 31.5622C10.0827 31.7705 9.99935 31.9997 9.99935 32.2497C9.99935 32.5552 10.1243 32.8122 10.3743 33.0205C10.6243 33.2288 10.916 33.333 11.2493 33.333H29.9993V6.66634H33.3327V36.6663H11.2493ZM14.9993 26.958L23.3327 25.333V5.41634L14.9993 7.04134V26.958ZM11.666 27.6247V7.70801L11.041 7.83301C10.7355 7.88856 10.4855 8.02051 10.291 8.22884C10.0966 8.43718 9.99935 8.69412 9.99935 8.99967V28.0413C10.1382 27.9858 10.2841 27.9372 10.4368 27.8955C10.5896 27.8538 10.7355 27.8191 10.8743 27.7913L11.666 27.6247Z" fill="#ABB0D3"/>
</g>
</svg>
