<svg width="40" height="40" viewBox="0 0 40 40" fill="none" xmlns="http://www.w3.org/2000/svg">
<mask id="mask0_494_1289" style="mask-type:alpha" maskUnits="userSpaceOnUse" x="0" y="0" width="40" height="40">
<rect width="40" height="40" fill="#D9D9D9"/>
</mask>
<g mask="url(#mask0_494_1289)">
<path d="M17.2503 28.3337L26.667 18.917L24.2503 16.5003L17.2087 23.542L13.7087 20.042L11.3337 22.417L17.2503 28.3337ZM10.8337 33.3337C8.30588 33.3337 6.14616 32.4587 4.35449 30.7087C2.56283 28.9587 1.66699 26.8198 1.66699 24.292C1.66699 22.1253 2.31977 20.1948 3.62533 18.5003C4.93088 16.8059 6.63921 15.7225 8.75033 15.2503C9.44477 12.6948 10.8337 10.6253 12.917 9.04199C15.0003 7.45866 17.3614 6.66699 20.0003 6.66699C23.2503 6.66699 26.0073 7.79894 28.2712 10.0628C30.535 12.3267 31.667 15.0837 31.667 18.3337C33.5837 18.5559 35.1739 19.3823 36.4378 20.8128C37.7017 22.2434 38.3337 23.917 38.3337 25.8337C38.3337 27.917 37.6045 29.6878 36.1462 31.1462C34.6878 32.6045 32.917 33.3337 30.8337 33.3337H10.8337ZM10.8337 30.0003H30.8337C32.0003 30.0003 32.9864 29.5975 33.792 28.792C34.5975 27.9864 35.0003 27.0003 35.0003 25.8337C35.0003 24.667 34.5975 23.6809 33.792 22.8753C32.9864 22.0698 32.0003 21.667 30.8337 21.667H28.3337V18.3337C28.3337 16.0281 27.5212 14.0628 25.8962 12.4378C24.2712 10.8128 22.3059 10.0003 20.0003 10.0003C17.6948 10.0003 15.7295 10.8128 14.1045 12.4378C12.4795 14.0628 11.667 16.0281 11.667 18.3337H10.8337C9.22255 18.3337 7.84755 18.9031 6.70866 20.042C5.56977 21.1809 5.00033 22.5559 5.00033 24.167C5.00033 25.7781 5.56977 27.1531 6.70866 28.292C7.84755 29.4309 9.22255 30.0003 10.8337 30.0003Z" fill="#ABB0D3"/>
</g>
</svg>
