<svg width="40" height="40" viewBox="0 0 40 40" fill="none" xmlns="http://www.w3.org/2000/svg">
<mask id="mask0_494_1081" style="mask-type:alpha" maskUnits="userSpaceOnUse" x="0" y="0" width="40" height="40">
<rect width="40" height="40" fill="#D9D9D9"/>
</mask>
<g mask="url(#mask0_494_1081)">
<path d="M8.33333 35.0002C7.86111 35.0002 7.46528 34.8405 7.14583 34.521C6.82639 34.2016 6.66667 33.8057 6.66667 33.3335V31.6668H5V25.0002C5 24.528 5.15972 24.1321 5.47917 23.8127C5.79861 23.4932 6.19444 23.3335 6.66667 23.3335H8.33333V11.6668C8.33333 9.83352 8.98611 8.26407 10.2917 6.95852C11.5972 5.65296 13.1667 5.00018 15 5.00018C16.8333 5.00018 18.4028 5.65296 19.7083 6.95852C21.0139 8.26407 21.6667 9.83352 21.6667 11.6668V28.3335C21.6667 29.2502 21.9931 30.0349 22.6458 30.6877C23.2986 31.3405 24.0833 31.6668 25 31.6668C25.9167 31.6668 26.7014 31.3405 27.3542 30.6877C28.0069 30.0349 28.3333 29.2502 28.3333 28.3335V16.6668H26.6667C26.1944 16.6668 25.7986 16.5071 25.4792 16.1877C25.1597 15.8682 25 15.4724 25 15.0002V8.33352H26.6667V6.66685C26.6667 6.19463 26.8264 5.79879 27.1458 5.47935C27.4653 5.15991 27.8611 5.00018 28.3333 5.00018H31.6667C32.1389 5.00018 32.5347 5.15991 32.8542 5.47935C33.1736 5.79879 33.3333 6.19463 33.3333 6.66685V8.33352H35V15.0002C35 15.4724 34.8403 15.8682 34.5208 16.1877C34.2014 16.5071 33.8056 16.6668 33.3333 16.6668H31.6667V28.3335C31.6667 30.1668 31.0139 31.7363 29.7083 33.0419C28.4028 34.3474 26.8333 35.0002 25 35.0002C23.1667 35.0002 21.5972 34.3474 20.2917 33.0419C18.9861 31.7363 18.3333 30.1668 18.3333 28.3335V11.6668C18.3333 10.7502 18.0069 9.96546 17.3542 9.31268C16.7014 8.65991 15.9167 8.33352 15 8.33352C14.0833 8.33352 13.2986 8.65991 12.6458 9.31268C11.9931 9.96546 11.6667 10.7502 11.6667 11.6668V23.3335H13.3333C13.8056 23.3335 14.2014 23.4932 14.5208 23.8127C14.8403 24.1321 15 24.528 15 25.0002V31.6668H13.3333V33.3335C13.3333 33.8057 13.1736 34.2016 12.8542 34.521C12.5347 34.8405 12.1389 35.0002 11.6667 35.0002H8.33333Z" fill="#ABB0D3"/>
</g>
</svg>
