<svg width="40" height="40" viewBox="0 0 40 40" fill="none" xmlns="http://www.w3.org/2000/svg">
<mask id="mask0_494_1069" style="mask-type:alpha" maskUnits="userSpaceOnUse" x="0" y="0" width="40" height="40">
<rect width="40" height="40" fill="#D9D9D9"/>
</mask>
<g mask="url(#mask0_494_1069)">
<path d="M6.66536 33.3327C5.7487 33.3327 4.96398 33.0063 4.3112 32.3535C3.65842 31.7007 3.33203 30.916 3.33203 29.9993V9.99935C3.33203 9.08268 3.65842 8.29796 4.3112 7.64518C4.96398 6.9924 5.7487 6.66602 6.66536 6.66602H16.6654L19.9987 9.99935H33.332C34.2487 9.99935 35.0334 10.3257 35.6862 10.9785C36.339 11.6313 36.6654 12.416 36.6654 13.3327H18.6237L15.2904 9.99935H6.66536V29.9993L10.6654 16.666H39.1654L34.8737 30.9577C34.6515 31.6799 34.2418 32.2563 33.6445 32.6868C33.0473 33.1174 32.3876 33.3327 31.6654 33.3327H6.66536ZM10.1654 29.9993H31.6654L34.6654 19.9993H13.1654L10.1654 29.9993Z" fill="#ABB0D3"/>
</g>
</svg>
