<svg width="40" height="40" viewBox="0 0 40 40" fill="none" xmlns="http://www.w3.org/2000/svg">
<mask id="mask0_494_1074" style="mask-type:alpha" maskUnits="userSpaceOnUse" x="0" y="0" width="40" height="40">
<rect width="40" height="40" fill="#D9D9D9"/>
</mask>
<g mask="url(#mask0_494_1074)">
<path d="M34.9173 37.2923L30.0007 32.3757V36.084H26.6673V26.6673H36.084V30.0007H32.334L37.2507 34.9173L34.9173 37.2923ZM20.0007 36.6673C17.6951 36.6673 15.5284 36.2298 13.5007 35.3548C11.4729 34.4798 9.70898 33.2923 8.20898 31.7923C6.70898 30.2923 5.52148 28.5284 4.64648 26.5007C3.77148 24.4729 3.33398 22.3062 3.33398 20.0007C3.33398 17.6951 3.77148 15.5284 4.64648 13.5007C5.52148 11.4729 6.70898 9.70898 8.20898 8.20898C9.70898 6.70898 11.4729 5.52148 13.5007 4.64648C15.5284 3.77148 17.6951 3.33398 20.0007 3.33398C22.3062 3.33398 24.4729 3.77148 26.5007 4.64648C28.5284 5.52148 30.2923 6.70898 31.7923 8.20898C33.2923 9.70898 34.4798 11.4729 35.3548 13.5007C36.2298 15.5284 36.6673 17.6951 36.6673 20.0007C36.6673 20.5562 36.6395 21.1118 36.584 21.6673C36.5284 22.2229 36.4451 22.7784 36.334 23.334H32.9173C33.0562 22.7784 33.1604 22.2229 33.2298 21.6673C33.2993 21.1118 33.334 20.5562 33.334 20.0007C33.334 19.4451 33.2993 18.8895 33.2298 18.334C33.1604 17.7784 33.0562 17.2229 32.9173 16.6673H27.2507C27.334 17.2229 27.3965 17.7784 27.4382 18.334C27.4798 18.8895 27.5007 19.4451 27.5007 20.0007C27.5007 20.5562 27.4798 21.1118 27.4382 21.6673C27.3965 22.2229 27.334 22.7784 27.2507 23.334H23.9173C24.0007 22.7784 24.0632 22.2229 24.1048 21.6673C24.1465 21.1118 24.1673 20.5562 24.1673 20.0007C24.1673 19.4451 24.1465 18.8895 24.1048 18.334C24.0632 17.7784 24.0007 17.2229 23.9173 16.6673H16.084C16.0007 17.2229 15.9382 17.7784 15.8965 18.334C15.8548 18.8895 15.834 19.4451 15.834 20.0007C15.834 20.5562 15.8548 21.1118 15.8965 21.6673C15.9382 22.2229 16.0007 22.7784 16.084 23.334H21.6673V26.6673H16.834C17.1673 27.8618 17.5979 29.0076 18.1257 30.1048C18.6534 31.202 19.2784 32.2507 20.0007 33.2507C20.5562 33.2507 21.1118 33.2159 21.6673 33.1465C22.2229 33.077 22.7784 33.0145 23.334 32.959V36.3757C22.7784 36.4312 22.2229 36.4937 21.6673 36.5631C21.1118 36.6326 20.5562 36.6673 20.0007 36.6673ZM7.08398 23.334H12.7507C12.6673 22.7784 12.6048 22.2229 12.5632 21.6673C12.5215 21.1118 12.5007 20.5562 12.5007 20.0007C12.5007 19.4451 12.5215 18.8895 12.5632 18.334C12.6048 17.7784 12.6673 17.2229 12.7507 16.6673H7.08398C6.9451 17.2229 6.84093 17.7784 6.77148 18.334C6.70204 18.8895 6.66732 19.4451 6.66732 20.0007C6.66732 20.5562 6.70204 21.1118 6.77148 21.6673C6.84093 22.2229 6.9451 22.7784 7.08398 23.334ZM8.50065 13.334H13.4173C13.6673 12.3062 13.9798 11.2993 14.3548 10.3132C14.7298 9.32704 15.1673 8.36176 15.6673 7.41732C14.1395 7.91732 12.7645 8.67426 11.5423 9.68815C10.3201 10.702 9.30621 11.9173 8.50065 13.334ZM15.6673 32.584C15.1673 31.6395 14.7298 30.6743 14.3548 29.6882C13.9798 28.702 13.6673 27.6951 13.4173 26.6673H8.50065C9.30621 28.084 10.3201 29.2993 11.5423 30.3132C12.7645 31.327 14.1395 32.084 15.6673 32.584ZM16.834 13.334H23.1673C22.834 12.1395 22.4034 10.9937 21.8757 9.89648C21.3479 8.79926 20.7229 7.75065 20.0007 6.75065C19.2784 7.75065 18.6534 8.79926 18.1257 9.89648C17.5979 10.9937 17.1673 12.1395 16.834 13.334ZM26.584 13.334H31.5007C30.6951 11.9173 29.6812 10.702 28.459 9.68815C27.2368 8.67426 25.8618 7.91732 24.334 7.41732C24.834 8.36176 25.2715 9.32704 25.6465 10.3132C26.0215 11.2993 26.334 12.3062 26.584 13.334Z" fill="#ABB0D3"/>
</g>
</svg>
