<svg width="40" height="40" viewBox="0 0 40 40" fill="none" xmlns="http://www.w3.org/2000/svg">
<mask id="mask0_494_1294" style="mask-type:alpha" maskUnits="userSpaceOnUse" x="0" y="0" width="40" height="40">
<rect width="40" height="40" fill="#D9D9D9"/>
</mask>
<g mask="url(#mask0_494_1294)">
<path d="M20.2087 21.6663H27.0003C27.7225 21.6663 28.3337 21.4163 28.8337 20.9163C29.3337 20.4163 29.5837 19.8052 29.5837 19.083C29.5837 18.3608 29.3337 17.7427 28.8337 17.2288C28.3337 16.715 27.7225 16.458 27.0003 16.458H26.917C26.7781 15.5691 26.3753 14.8261 25.7087 14.2288C25.042 13.6316 24.2503 13.333 23.3337 13.333C22.6114 13.333 21.9587 13.5205 21.3753 13.8955C20.792 14.2705 20.3475 14.7775 20.042 15.4163C19.2087 15.4719 18.5073 15.7983 17.9378 16.3955C17.3684 16.9927 17.0837 17.708 17.0837 18.5413C17.0837 19.3747 17.3823 20.1038 17.9795 20.7288C18.5767 21.3538 19.3198 21.6663 20.2087 21.6663ZM5.00033 34.9997C4.08366 34.9997 3.29894 34.6733 2.64616 34.0205C1.99338 33.3677 1.66699 32.583 1.66699 31.6663V9.99967H5.00033V31.6663H33.3337V34.9997H5.00033ZM11.667 28.333C10.7503 28.333 9.9656 28.0066 9.31283 27.3538C8.66005 26.7011 8.33366 25.9163 8.33366 24.9997V6.66634C8.33366 5.74967 8.66005 4.96495 9.31283 4.31217C9.9656 3.6594 10.7503 3.33301 11.667 3.33301H20.0003L23.3337 6.66634H35.0003C35.917 6.66634 36.7017 6.99273 37.3545 7.64551C38.0073 8.29829 38.3337 9.08301 38.3337 9.99967V24.9997C38.3337 25.9163 38.0073 26.7011 37.3545 27.3538C36.7017 28.0066 35.917 28.333 35.0003 28.333H11.667ZM11.667 24.9997H35.0003V9.99967H21.9587L18.6253 6.66634H11.667V24.9997Z" fill="#ABB0D3"/>
</g>
</svg>
