<svg xmlns="http://www.w3.org/2000/svg" viewBox="0 0 136 136" id="customer-representative"><circle cx="68" cy="68" r="64" fill="#EE4B68"></circle><path fill="#4C5AA5" d="M54.8 80.8V82c-.2.2-.4.3-.6.5-1.6 1-6.7 7.1-7.6 11.1-1.8 8.6-7.3 23.7-7.3 23.7-1 2.5-1.6 4.8-1.8 6.9-2.1-1.2-4.2-2.5-6.2-3.9.1-10.4.9-22.1.9-22.1 2.3-5.7 17-13.7 17-13.7.8-.2 4.9-3.1 5.6-3.7zM112.7 90.3v23.5c-5 4.8-10.7 8.9-17 11.9-.7.3-1.4.7-2.1 1-7.8 3.4-16.4 5.3-25.5 5.3-4.7 0-9.2-.5-13.6-1.5-.5-.1-.9-.2-1.4-.3 2.4-4.8 7.1-12.8 16-24.7 0 0 4.6-8.3 9.6-16l.1-.1c3.6-5.5 7.4-10.7 9.9-12.1-.1.1 21.7 6 24 13z"></path><path fill="#E7E7E8" d="M81.4 87.1c-1.4 2.1-2.7 4.3-4 6.5-.2.3-.3.5-.5.8-.2.3-.3.5-.5.8-.3.5-.6.9-.8 1.4-.4.6-.7 1.2-1 1.8-2.4 4.2-4 7.2-4 7.2-9.1 12.1-13.8 20.3-16.2 25-.5-.1-.9-.2-1.4-.3-5.5-1.3-10.7-3.3-15.6-6 .2-2.1.8-4.4 1.8-6.9 0 0 5.5-15.1 7.3-23.7.9-3.8 6-10 7.6-11.1v.1c.3 1-.9 3.3-3.2 5.1-2.6 2-3.3 6.1-3 8.7-.9 12.1 2.5 17.9 4.2 17.9 4.4-5.1 20-19.1 26.4-24.8 1.6-1.3 2.6-2.2 2.9-2.5z"></path><path fill="#F1B97C" d="M78.9 70.5c-.8-3 3.5-8 3.5-8L68 63.8l-14.6 7.1 1.4 9.9-.1.1c.1 0 .1-.1.1-.1V82c-.2.2-.4.3-.6.5 0 .3.1 2.5-3.2 5.1-3.6 2.9-3 8.7-3 8.7-1.2 15.4 4.2 17.9 4.2 17.9 5.6-6.5 29.2-27.3 29.3-27.3-2.5 3.8-4.9 7.9-6.9 11.3 3.9-6.8 9.8-16.5 14-20.9-2.3-.9-9-4.3-9.7-6.8z"></path><path fill="#E8AE74" d="M52.2 114.4c-4.9-2.2-5-12.5-4.7-18v.1c-.7-9.1 6.9-9.7 6.7-14 .7 4.1-6.5 5.6-5.8 13.9-.1 3.2-.9 15.1 3.8 18z"></path><path fill="#3F4E91" d="M95.7 125.7c-.7.3-1.4.7-2.1 1 0-.4.1-.7.2-1 1.1-4 1.8-5.5 1.8-5.5s.2 3.2.1 5.5z"></path><path fill="#F8CFA3" d="M44.8 54.9s-2.9-1.1-2.6-4.8c0 0-1.2-1.3-.8-5.2 0 0-1.4-9.2 2.7-6.4l5.2-14.3 7.9-7.4L78.8 18l10.4 13.4.7 12.3s-3.3 10.8-5 14c0 0-4.4 11.3-11.3 14.7 0 0-9 5.9-16.2 1.9 0 0-6.1-3.4-9.6-10.4 0 0-2-3.5-3-9z"></path><path fill="#886C60" d="M44.5 46.4s1.4-5.2-1.2-8.3c0 0 .5-14.6 5.7-20.1s8.9-6.7 8.9-6.7 5.9-5.1 18.3-.8c0 0 9.4 2.2 13.6 14.3 0 0 4.2 14.5-1.4 23.5l-1.8-6.5s-4.2-5.6-4.1-9.5c0-1.5-.2-3.1-.9-4.4-1.7-3.4-5.7-8.5-14.2-8.5 0 0-16.6-.7-19.5 12 0 0-2.3 5.6-2.4 7.8-.1.1.3 5.7-1 7.2z"></path><g fill="#4C525E"><path d="m89.8 25.9-.4-1.3c.2.3.3.8.4 1.3zM91.5 55.2s-2.2 3.3-4.7 1.3c-2.5-2-.6-7.1-.6-7.1 3.3-7.6 3.3-11.5 3.5-13.1.2-1.9.7-6.3.3-9.5 0-.4-.1-.7-.1-1l1.2 4.6c-.1 2.5-.2.7.3 8.8-.3 1.7-1.4 3.9-2 6.1-3 10.5 2.1 9.9 2.1 9.9z"></path></g><path fill="#343843" d="M93 47c-.2-.8-.7-1.5-1.4-2.1-.5-.4-.4-1.4-.4-1.4 1.5-8.9-.8-16.8-2.4-21.2 2.5 9.4 2.7 14.2.3 22.6-3 10.5 1.7 10.3 1.7 10.3 2.7-3.3 2.6-6.4 2.2-8.2z"></path><path fill="#646C79" d="m70.1 69.4-.3-1.2c17.8-4.3 21.9-15.6 22-15.7l1.8-.3c-.3.5-5.1 12.7-23.5 17.2z"></path><path fill="#343843" d="M62.9 68.3c.9-.7 2.4-1.5 4.7-1.4 1.9.1 3.5 1.8 3.1 3.7v.1c0 .2-.1.3-.2.4-.7.7-3.1 2.8-6.4 2.5 0 0-1.7-.4-2.2-2.2-.4-1.2.1-2.4 1-3.1z"></path><path fill="#4C525E" d="M93.5 48.1c1 .3 1.5 1.2 1.3 2.2-.1.5-.3 1.1-.8 1.4 0 0-.9 1.1-1 1.9l-1.5-.6s.8-1.4.1-1.9c0 0-.1-.2-.2-.5-.5-1.4.7-2.8 2.1-2.5z"></path><g fill="#BB5C64"><path d="M89.6 31.5c-.8-1.8-1.6-3.4-2.9-5.2-1.1-2.8-2.5-4.7-4.5-6.6 2.5 2.3 3.7 3.8 5.3 6-3.5-6-8.6-9.7-15.4-12.6 8.3 3 10.1 5.1 14.5 10.8-2-3.1-2.1-2.9-3.5-4.6 3 2.6 4.4 4.9 5.2 5.9-5.2-8.4-14.9-14.4-25.5-15h-.3c3.3.1 8.6 1.4 13.6 4.1-4.9-2.1-9-3-13.5-3 8.9.8 16.7 5.7 21.7 11.9-2.3-2.3-7.8-8.6-18-10.4 4.1.8 7.9 2.8 11.3 4.9-2.3-1.3-4.5-2.2-5.4-2.5.3.1 1.9.8 2.2 1-2.2-.9-7.4-2.2-8.2-2.2C77.3 16.6 85 26.2 86.8 30.6c.9 2.2 1.4 3.9 1.3 6.2v-.5 2c.2-2.2.2-4.7-.7-9 2.3 4.6 1 1.4-.1-.4 0-.1 0-.2-.1-.3v-.1c.2.4.7 1.3.8 1.5-1.3-3-.6-1-1.1-3 .8 1 1.4 1.8 2.7 4.5zM69.9 14.9c-.1 0-.2-.1-.3-.1.2 0 .3.1.3.1.1 0 .1 0 0 0zm17.2 14.6c-.5-1.4-1.1-2.1-1.6-3.2.3.4.9 1.2 1.1 1.6.1.2.5 1.4.5 1.6zm-2-3.6c-.1-.2-.2-.3-.3-.5-.6-.6-.1-.1.3.5zm1.4 1.1c.2.3.4.8.5 1.1-.4-.6-.1-.2-.5-1.1zm.2-.4c.3.9-.1-.2-.2-.3.1.1.1.2.2.3zm-21-15c2.9.4 5.6 1.2 5.6 1.2.2.1.5.2.8.4-1.1-.3-3.2-1.1-6.4-1.6zm5.2 1.5c5.7 1.9 12.5 6.5 15.3 12.3-1.4-1.8-4.5-7.8-15.3-12.3zm15 12.7c-.1-.1-.2-.4-.3-.6 0 0 0-.1 0 0 .1.1.3.5.3.6zm.3 1.1c-.3-.5-2.3-3.4-2.8-4 1 1 2.1 2.6 2.8 4zM81 20.8s2 1.8 2.6 2.7c-2.1-2.5-5.6-4.8-8.1-6.4 2.8 1.6 3.3 1.9 5.5 3.7zm-10.3-5.6c.9.3 2.9 1.1 3.9 1.5 0 0 .5.3.7.5-1.1-.6-2.7-1.3-4.6-2zM88 33.5c-1.5-6.9-7.6-12.8-13.7-16.5 5.9 3.2 10.1 7.8 11.9 11.2l.2.6c0-.1-.1-.2-.1-.5.3.7 1 2 1.1 2.8v-.3c.2.8.4 1.7.6 2.7zm-.8-4.6c0 .1.2.7.2.8 0 0 .1.9.1 1v-.5c.1.6.2 1.1.2 1.5-.2-1.1-.3-.6-.6-2.3 0 0-.1-.5-.2-.7v-.1c.1 0 .3.2.3.3z"></path><path d="M75.2 19.3c.5.3 1.3.8 2.1 1.4-1.7-1.1-3.6-1.9-4.5-2.2 7.4 3.3 13 8.6 14.5 16.5-.4-3.3-1.2-5.1-2.4-7 2.6 3.6 3.1 6.3 3 9.5.7-8.3-6.2-15-12.7-18.2z"></path></g></svg>